<svg width="44" height="44" viewBox="0 0 44 44" fill="none" xmlns="http://www.w3.org/2000/svg">
<path fill-rule="evenodd" clip-rule="evenodd" d="M44 9.72093C44 7.14233 42.9767 4.67014 41.1533 2.8467C39.3299 1.02326 36.8577 0 34.2791 0H9.72093C7.14233 0 4.67014 1.02326 2.8467 2.8467C1.02326 4.67014 0 7.14233 0 9.72093V34.2791C0 36.8577 1.02326 39.3299 2.8467 41.1533C4.67014 42.9767 7.14233 44 9.72093 44H34.2791C36.8577 44 39.3299 42.9767 41.1533 41.1533C42.9767 39.3299 44 36.8577 44 34.2791V9.72093ZM22.9987 14.1475L18.0871 28.8824C17.821 29.6867 18.2549 30.5565 19.0592 30.8246C19.8634 31.0906 20.7332 30.6567 21.0013 29.8525L25.9129 15.1176C26.179 14.3133 25.7451 13.4435 24.9408 13.1754C24.1366 12.9094 23.2668 13.3433 22.9987 14.1475ZM28.2828 18.173L32.1077 22L28.2828 25.827C27.6832 26.4246 27.6832 27.3987 28.2828 27.9963C28.8804 28.5959 29.8545 28.5959 30.4521 27.9963L35.3637 23.0847C35.9634 22.485 35.9634 21.515 35.3637 20.9153L30.4521 16.0037C29.8545 15.4041 28.8804 15.4041 28.2828 16.0037C27.6832 16.6013 27.6832 17.5754 28.2828 18.173ZM13.5479 16.0037L8.63628 20.9153C8.03665 21.515 8.03665 22.485 8.63628 23.0847L13.5479 27.9963C14.1455 28.5959 15.1196 28.5959 15.7172 27.9963C16.3168 27.3987 16.3168 26.4246 15.7172 25.827L11.8923 22L15.7172 18.173C16.3168 17.5754 16.3168 16.6013 15.7172 16.0037C15.1196 15.4041 14.1455 15.4041 13.5479 16.0037Z" fill="url(#paint0_linear_138_232)"/>
<defs>
<linearGradient id="paint0_linear_138_232" x1="22" y1="0" x2="22" y2="44" gradientUnits="userSpaceOnUse">
<stop stop-color="#6C3DD1"/>
<stop offset="1" stop-color="#D281BC"/>
</linearGradient>
</defs>
</svg>
