<svg width="20" height="20" viewBox="0 0 20 20" fill="none" xmlns="http://www.w3.org/2000/svg">
<g id="Checkmark Circle">
<path id="Shape" d="M10 2.00012C14.4183 2.00012 18 5.58184 18 10.0001C18 14.4184 14.4183 18.0001 10 18.0001C5.58172 18.0001 2 14.4184 2 10.0001C2 5.58184 5.58172 2.00012 10 2.00012ZM13.3584 7.64657C13.1849 7.473 12.9154 7.45372 12.7206 7.58871L12.6513 7.64657L9 11.2981L7.35355 9.65144L7.28431 9.59358C7.08944 9.45859 6.82001 9.47787 6.64645 9.65144C6.47288 9.825 6.4536 10.0944 6.58859 10.2893L6.64645 10.3585L8.64645 12.3585L8.71569 12.4164C8.8862 12.5345 9.1138 12.5345 9.28431 12.4164L9.35355 12.3585L13.3584 8.35368L13.4163 8.28443C13.5513 8.08956 13.532 7.82014 13.3584 7.64657Z" fill="#D281BC"/>
</g>
</svg>
