<svg width="190" height="31" viewBox="0 0 190 31" fill="none" xmlns="http://www.w3.org/2000/svg">
<g clip-path="url(#clip0_138_43)">
<mask id="mask0_138_43" style="mask-type:luminance" maskUnits="userSpaceOnUse" x="0" y="0" width="190" height="31">
<path d="M190 0.971924H0V30.0281H190V0.971924Z" fill="white"/>
</mask>
<g mask="url(#mask0_138_43)">
<path d="M31.4409 16.1435C31.5944 15.3524 31.677 14.526 31.677 13.6877C31.6888 6.66273 25.9625 0.971924 18.9022 0.971924C11.8418 0.971924 6.11558 6.66273 6.11558 13.6877C6.11558 14.526 6.19823 15.3524 6.35173 16.1435C4.76962 17.1116 3.70703 18.859 3.70703 20.8425C3.70703 23.8886 6.18643 26.3561 9.25617 26.3561C10.6848 26.3561 11.9835 25.8249 12.9634 24.9394C14.7345 25.8603 16.7534 26.3915 18.8904 26.3915C21.0274 26.3915 23.0462 25.8603 24.8173 24.9394C25.7972 25.8131 27.0959 26.3561 28.5247 26.3561C31.5826 26.3561 34.0737 23.8886 34.0737 20.8425C34.0737 18.859 33.0111 17.1116 31.4291 16.1435H31.4409Z" fill="url(#paint0_linear_138_43)"/>
<path fill-rule="evenodd" clip-rule="evenodd" d="M37.7931 20.8898C37.7931 22.7788 37.2144 24.5499 36.2345 26.002C35.2545 27.4662 33.8614 28.6114 32.2202 29.3078C31.1222 29.7684 29.9179 30.0281 28.6665 30.0281C26.7774 30.0281 25.0063 29.4495 23.5542 28.4695C23.2709 28.2807 22.9992 28.0682 22.7395 27.8439L22.0311 27.1354C22.1593 27.2178 22.2902 27.2966 22.4235 27.3713C22.2864 27.2916 22.1517 27.2088 22.0193 27.1236L21.5707 26.6751L12.3851 17.395C11.9837 17.029 11.5114 16.722 11.0037 16.4977C10.437 16.2615 9.81126 16.1198 9.15007 16.1198C8.15833 16.1198 7.24921 16.415 6.49357 16.9345C5.72615 17.454 5.124 18.1742 4.76981 19.0361C4.67536 19.2604 4.59897 19.4516 4.53993 19.6995C4.54744 19.5847 4.55829 19.4706 4.57239 19.3573C4.54411 19.4891 4.51936 19.6222 4.49825 19.7564C4.4038 20.1224 4.35656 20.5003 4.35656 20.8899C4.35656 21.2559 4.39199 21.6101 4.47462 21.9407L4.47528 21.9454L4.47637 21.9405C4.60624 22.5308 4.86427 23.0621 5.19485 23.5462C5.71434 24.3136 6.44635 24.9158 7.29645 25.2699C7.86316 25.506 8.48891 25.6477 9.15007 25.6477C10.1418 25.6477 11.051 25.3526 11.8066 24.8332C11.8184 24.8214 11.8302 24.8125 11.842 24.8037C11.8538 24.7948 11.8656 24.786 11.8774 24.7742C13.0109 23.9713 14.5575 24.1011 15.5375 25.0929L16.5883 26.1555L16.6001 26.1673C16.3639 26.5096 16.1042 26.8285 15.8208 27.1236C14.959 28.0564 13.8963 28.8003 12.7039 29.3081C11.6058 29.7684 10.4016 30.0281 9.15007 30.0281C7.26099 30.0281 5.49 29.4497 4.03778 28.4697C2.57376 27.4898 1.42852 26.0967 0.731924 24.4555C0.271466 23.3575 0.0117188 22.1532 0.0117188 20.9017C0.0117188 19.0126 0.590244 17.2416 1.5702 15.7894C2.55015 14.3372 3.94332 13.1801 5.58445 12.4836C6.68248 12.0231 7.88674 11.7633 9.13825 11.7633H9.49246C11.2398 11.8342 12.8928 12.4009 14.2505 13.3218C14.8377 13.7247 15.3799 14.1838 15.8553 14.7099C15.8873 14.7312 15.9191 14.7525 15.9507 14.7739L16.0688 14.8919L25.644 24.5617C25.9981 24.8568 26.3996 25.1047 26.8364 25.2817C27.4032 25.5178 28.0288 25.6597 28.6901 25.6597C29.6819 25.6597 30.591 25.3644 31.3467 24.845C32.1139 24.3254 32.7162 23.5934 33.0703 22.7434C33.2592 22.2947 33.3654 21.8106 33.401 21.2912C33.3731 21.8335 33.2912 22.3717 33.1595 22.8949C33.2996 22.3843 33.3863 21.8516 33.4126 21.303L33.4153 21.2704C33.4262 21.1413 33.4362 21.0214 33.4362 20.9016C33.4362 20.7481 33.4362 20.5828 33.4126 20.4293C33.3722 19.7986 33.2526 19.1896 33.0637 18.6122C32.9897 18.4788 32.9091 18.3486 32.8222 18.2215C32.2928 17.4541 31.5471 16.8519 30.6813 16.4977C30.1041 16.2616 29.4664 16.1199 28.7929 16.1199C27.7828 16.1199 26.8566 16.4151 26.0868 16.9346C26.0868 16.9346 26.0748 16.9346 26.0628 16.9464C24.8962 17.7256 23.3329 17.6076 22.3345 16.6276L21.2521 15.5532H21.24C21.4204 15.2935 21.6249 15.0455 21.8294 14.8212L21.8311 14.8203C22.7284 13.8054 23.8379 13.0028 25.1125 12.4598C26.0099 12.082 26.9898 11.8341 28.0052 11.7632C28.076 11.7632 28.1469 11.7573 28.2177 11.7514C28.2885 11.7455 28.3593 11.7396 28.4304 11.7396H28.6665C30.5556 11.7396 32.3264 12.3181 33.7788 13.2981C35.2427 14.278 36.3879 15.6712 37.0846 17.3123C37.5449 18.4104 37.8049 19.6147 37.8049 20.8662L37.7931 20.8898ZM25.8846 28.3147C25.9341 28.3156 25.9838 28.3161 26.0335 28.3161C26.0582 28.3161 26.0828 28.3161 26.1073 28.3158C26.0789 28.3122 26.0503 28.3084 26.0217 28.3043C25.9758 28.3084 25.9302 28.3118 25.8846 28.3147ZM21.8895 14.7858C21.8879 14.7866 21.8863 14.7873 21.8848 14.7881C21.8834 14.7889 21.882 14.7896 21.8806 14.7904C21.8834 14.7889 21.8864 14.7873 21.8895 14.7858Z" fill="url(#paint1_linear_138_43)"/>
<path d="M53.5117 26.0038C52.2282 26.0038 51.0412 25.7711 49.9505 25.306C48.8756 24.8407 47.9292 24.191 47.1111 23.3569C46.3089 22.5228 45.6833 21.5443 45.2343 20.4214C44.7851 19.2985 44.5605 18.0713 44.5605 16.7399C44.5605 15.4084 44.7771 14.1813 45.2102 13.0584C45.6592 11.9194 46.2848 10.9409 47.0871 10.1228C47.9052 9.28861 48.8595 8.64697 49.9505 8.1978C51.0412 7.73261 52.2282 7.5 53.5117 7.5C54.7949 7.5 55.9419 7.71656 56.9525 8.14968C57.979 8.5828 58.8453 9.16029 59.5513 9.88215C60.257 10.588 60.7623 11.366 61.0672 12.2162L58.1316 13.5877C57.7947 12.6894 57.2252 11.9515 56.4232 11.374C55.621 10.7805 54.6505 10.4837 53.5117 10.4837C52.3887 10.4837 51.3942 10.7484 50.528 11.2778C49.6776 11.8071 49.012 12.537 48.5308 13.4674C48.0654 14.3978 47.833 15.4886 47.833 16.7399C47.833 17.9911 48.0654 19.0899 48.5308 20.0364C49.012 20.9668 49.6776 21.6967 50.528 22.226C51.3942 22.7554 52.3887 23.0201 53.5117 23.0201C54.6505 23.0201 55.621 22.7313 56.4232 22.1538C57.2252 21.5603 57.7947 20.8144 58.1316 19.9161L61.0672 21.2876C60.7623 22.1378 60.257 22.9238 59.5513 23.6457C58.8453 24.3515 57.979 24.921 56.9525 25.3541C55.9419 25.7873 54.7949 26.0038 53.5117 26.0038Z" fill="#F5F5F5"/>
<path d="M69.2639 26.0038C67.9804 26.0038 66.8095 25.7069 65.7508 25.1135C64.708 24.5199 63.874 23.7097 63.2483 22.6832C62.6386 21.6565 62.334 20.4855 62.334 19.1701C62.334 17.8547 62.6386 16.6837 63.2483 15.6571C63.874 14.6304 64.708 13.8203 65.7508 13.2268C66.7934 12.6332 67.9645 12.3365 69.2639 12.3365C70.5471 12.3365 71.71 12.6332 72.7529 13.2268C73.7955 13.8203 74.6216 14.6304 75.2313 15.6571C75.8569 16.6677 76.1697 17.8387 76.1697 19.1701C76.1697 20.4855 75.8569 21.6565 75.2313 22.6832C74.6057 23.7097 73.7714 24.5199 72.7288 25.1135C71.686 25.7069 70.531 26.0038 69.2639 26.0038ZM69.2639 23.1163C69.9696 23.1163 70.5873 22.9479 71.1167 22.611C71.6619 22.2741 72.0871 21.809 72.392 21.2154C72.7127 20.6058 72.8732 19.9241 72.8732 19.1701C72.8732 18.4001 72.7127 17.7264 72.392 17.1489C72.0871 16.5554 71.6619 16.0902 71.1167 15.7533C70.5873 15.4004 69.9696 15.2239 69.2639 15.2239C68.542 15.2239 67.9082 15.4004 67.363 15.7533C66.8175 16.0902 66.3844 16.5554 66.0636 17.1489C65.7588 17.7264 65.6064 18.4001 65.6064 19.1701C65.6064 19.9241 65.7588 20.6058 66.0636 21.2154C66.3844 21.809 66.8175 22.2741 67.363 22.611C67.9082 22.9479 68.542 23.1163 69.2639 23.1163Z" fill="#F5F5F5"/>
<path d="M83.1792 26.0038C81.7836 26.0038 80.5644 25.6749 79.5218 25.0173C78.495 24.3435 77.7893 23.4371 77.4043 22.2982L79.7624 21.1673C80.0993 21.9052 80.5644 22.4827 81.158 22.8998C81.7675 23.3169 82.4412 23.5254 83.1792 23.5254C83.7567 23.5254 84.2139 23.3971 84.5507 23.1404C84.8876 22.8837 85.056 22.5469 85.056 22.1298C85.056 21.8731 84.9839 21.6646 84.8395 21.5042C84.7112 21.3277 84.5267 21.1833 84.2861 21.071C84.0616 20.9427 83.8128 20.8384 83.5401 20.7582L81.3986 20.1567C80.2917 19.8359 79.4496 19.3466 78.8721 18.6889C78.3107 18.0312 78.0299 17.2532 78.0299 16.3549C78.0299 15.5528 78.2303 14.855 78.6315 14.2615C79.0485 13.6519 79.618 13.1787 80.3399 12.8418C81.0779 12.5049 81.92 12.3365 82.8664 12.3365C84.1015 12.3365 85.1925 12.6332 86.1388 13.2268C87.0852 13.8203 87.759 14.6545 88.1601 15.7292L85.7539 16.8602C85.5293 16.2666 85.1523 15.7934 84.6229 15.4405C84.0936 15.0876 83.5 14.9111 82.8423 14.9111C82.313 14.9111 81.896 15.0314 81.5911 15.2721C81.2862 15.5127 81.1339 15.8255 81.1339 16.2105C81.1339 16.4511 81.1982 16.6597 81.3264 16.8361C81.4547 17.0126 81.6313 17.1569 81.8558 17.2692C82.0964 17.3815 82.369 17.4858 82.6739 17.582L84.7673 18.2076C85.8422 18.5285 86.6682 19.0097 87.2457 19.6514C87.8393 20.293 88.136 21.0791 88.136 22.0095C88.136 22.7955 87.9274 23.4933 87.5104 24.1029C87.0934 24.6963 86.5159 25.1616 85.7779 25.4985C85.0399 25.8354 84.1737 26.0038 83.1792 26.0038Z" fill="#F5F5F5"/>
<path d="M90.1982 25.7151V12.6252H93.1579V15.6571L92.821 15.1518C93.0616 14.2053 93.5429 13.4995 94.2647 13.0343C94.9866 12.5691 95.837 12.3365 96.8153 12.3365C97.8902 12.3365 98.8365 12.6172 99.6547 13.1787C100.473 13.7401 101.002 14.478 101.243 15.3924L100.352 15.4646C100.754 14.4219 101.355 13.6439 102.157 13.1305C102.959 12.6012 103.882 12.3365 104.924 12.3365C105.855 12.3365 106.681 12.545 107.403 12.9621C108.141 13.3792 108.718 13.9647 109.135 14.7186C109.552 15.4565 109.761 16.3148 109.761 17.2933V25.7151H106.609V18.0392C106.609 17.4617 106.504 16.9644 106.296 16.5474C106.087 16.1303 105.799 15.8094 105.43 15.5849C105.061 15.3443 104.611 15.2239 104.082 15.2239C103.585 15.2239 103.144 15.3443 102.759 15.5849C102.374 15.8094 102.077 16.1303 101.868 16.5474C101.66 16.9644 101.556 17.4617 101.556 18.0392V25.7151H98.4034V18.0392C98.4034 17.4617 98.2992 16.9644 98.0906 16.5474C97.8822 16.1303 97.5853 15.8094 97.2003 15.5849C96.8314 15.3443 96.3904 15.2239 95.8769 15.2239C95.3798 15.2239 94.9385 15.3443 94.5535 15.5849C94.1685 15.8094 93.8718 16.1303 93.6632 16.5474C93.4548 16.9644 93.3504 17.4617 93.3504 18.0392V25.7151H90.1982Z" fill="#F5F5F5"/>
<path d="M118.467 26.0038C117.184 26.0038 116.013 25.7069 114.954 25.1135C113.911 24.5199 113.077 23.7097 112.451 22.6832C111.842 21.6565 111.537 20.4855 111.537 19.1701C111.537 17.8547 111.842 16.6837 112.451 15.6571C113.077 14.6304 113.911 13.8203 114.954 13.2268C115.997 12.6332 117.168 12.3365 118.467 12.3365C119.75 12.3365 120.913 12.6332 121.956 13.2268C122.999 13.8203 123.825 14.6304 124.434 15.6571C125.06 16.6677 125.373 17.8387 125.373 19.1701C125.373 20.4855 125.06 21.6565 124.434 22.6832C123.809 23.7097 122.975 24.5199 121.932 25.1135C120.889 25.7069 119.734 26.0038 118.467 26.0038ZM118.467 23.1163C119.173 23.1163 119.79 22.9479 120.32 22.611C120.865 22.2741 121.29 21.809 121.595 21.2154C121.916 20.6058 122.076 19.9241 122.076 19.1701C122.076 18.4001 121.916 17.7264 121.595 17.1489C121.29 16.5554 120.865 16.0902 120.32 15.7533C119.79 15.4004 119.173 15.2239 118.467 15.2239C117.745 15.2239 117.112 15.4004 116.566 15.7533C116.021 16.0902 115.587 16.5554 115.267 17.1489C114.962 17.7264 114.81 18.4001 114.81 19.1701C114.81 19.9241 114.962 20.6058 115.267 21.2154C115.587 21.809 116.021 22.2741 116.566 22.611C117.112 22.9479 117.745 23.1163 118.467 23.1163Z" fill="#F5F5F5"/>
<path d="M133.707 26.0038C132.407 26.0038 131.236 25.7069 130.194 25.1135C129.167 24.5038 128.357 23.6857 127.763 22.6591C127.17 21.6165 126.873 20.4454 126.873 19.1461C126.873 17.8467 127.17 16.6837 127.763 15.6571C128.357 14.6304 129.167 13.8203 130.194 13.2268C131.236 12.6332 132.407 12.3365 133.707 12.3365C134.637 12.3365 135.503 12.5049 136.305 12.8418C137.108 13.1626 137.797 13.6118 138.375 14.1893C138.968 14.7507 139.394 15.4245 139.65 16.2105L136.883 17.4136C136.642 16.7559 136.233 16.2265 135.656 15.8255C135.094 15.4245 134.445 15.2239 133.707 15.2239C133.017 15.2239 132.399 15.3924 131.854 15.7292C131.325 16.0661 130.908 16.5313 130.603 17.1248C130.298 17.7184 130.145 18.4001 130.145 19.1701C130.145 19.9401 130.298 20.6219 130.603 21.2154C130.908 21.809 131.325 22.2741 131.854 22.611C132.399 22.9479 133.017 23.1163 133.707 23.1163C134.461 23.1163 135.118 22.9158 135.68 22.5148C136.241 22.1137 136.642 21.5763 136.883 20.9026L139.65 22.1538C139.394 22.8917 138.976 23.5575 138.399 24.151C137.821 24.7285 137.132 25.1857 136.329 25.5226C135.527 25.8433 134.653 26.0038 133.707 26.0038Z" fill="#F5F5F5"/>
<path d="M141.681 25.7151V7.5H144.833V25.7151H141.681Z" fill="#F5F5F5"/>
<path d="M153.782 26.0038C152.499 26.0038 151.328 25.7069 150.269 25.1135C149.227 24.5199 148.393 23.7097 147.767 22.6832C147.157 21.6565 146.853 20.4855 146.853 19.1701C146.853 17.8547 147.157 16.6837 147.767 15.6571C148.393 14.6304 149.227 13.8203 150.269 13.2268C151.312 12.6332 152.483 12.3365 153.782 12.3365C155.066 12.3365 156.229 12.6332 157.271 13.2268C158.314 13.8203 159.14 14.6304 159.75 15.6571C160.375 16.6677 160.688 17.8387 160.688 19.1701C160.688 20.4855 160.375 21.6565 159.75 22.6832C159.124 23.7097 158.29 24.5199 157.247 25.1135C156.205 25.7069 155.05 26.0038 153.782 26.0038ZM153.782 23.1163C154.488 23.1163 155.106 22.9479 155.635 22.611C156.18 22.2741 156.606 21.809 156.911 21.2154C157.231 20.6058 157.392 19.9241 157.392 19.1701C157.392 18.4001 157.231 17.7264 156.911 17.1489C156.606 16.5554 156.18 16.0902 155.635 15.7533C155.106 15.4004 154.488 15.2239 153.782 15.2239C153.061 15.2239 152.427 15.4004 151.882 15.7533C151.336 16.0902 150.903 16.5554 150.582 17.1489C150.277 17.7264 150.125 18.4001 150.125 19.1701C150.125 19.9241 150.277 20.6058 150.582 21.2154C150.903 21.809 151.336 22.2741 151.882 22.611C152.427 22.9479 153.061 23.1163 153.782 23.1163Z" fill="#F5F5F5"/>
<path d="M167.386 26.0038C166.375 26.0038 165.493 25.7791 164.739 25.3301C164.001 24.8809 163.432 24.2552 163.031 23.4532C162.646 22.6511 162.453 21.7127 162.453 20.6379V12.6252H165.605V20.3732C165.605 20.9187 165.709 21.3999 165.918 21.817C166.143 22.218 166.455 22.5388 166.856 22.7795C167.273 23.0041 167.739 23.1163 168.252 23.1163C168.766 23.1163 169.223 23.0041 169.624 22.7795C170.025 22.5388 170.338 22.21 170.562 21.7929C170.787 21.3758 170.899 20.8786 170.899 20.3011V12.6252H174.051V25.7151H171.067V23.1404L171.332 23.5976C171.027 24.3996 170.522 25.0012 169.816 25.4023C169.126 25.8032 168.316 26.0038 167.386 26.0038Z" fill="#F5F5F5"/>
<path d="M182.708 26.0038C181.441 26.0038 180.31 25.7069 179.315 25.1135C178.321 24.5038 177.535 23.6777 176.957 22.6351C176.38 21.5924 176.091 20.4374 176.091 19.1701C176.091 17.8868 176.38 16.7318 176.957 15.7052C177.535 14.6785 178.321 13.8604 179.315 13.2508C180.326 12.6413 181.449 12.3365 182.684 12.3365C183.678 12.3365 184.561 12.537 185.331 12.938C186.117 13.323 186.734 13.8685 187.183 14.5743L186.702 15.2239V7.5H189.854V25.7151H186.871V23.1885L187.208 23.8142C186.758 24.5199 186.133 25.0654 185.331 25.4504C184.529 25.8193 183.654 26.0038 182.708 26.0038ZM183.045 23.1163C183.767 23.1163 184.4 22.9479 184.946 22.611C185.491 22.2741 185.916 21.809 186.221 21.2154C186.542 20.6219 186.702 19.9401 186.702 19.1701C186.702 18.4162 186.542 17.7425 186.221 17.1489C185.916 16.5393 185.491 16.0661 184.946 15.7292C184.4 15.3924 183.767 15.2239 183.045 15.2239C182.339 15.2239 181.705 15.4004 181.144 15.7533C180.582 16.0902 180.141 16.5554 179.82 17.1489C179.516 17.7264 179.363 18.4001 179.363 19.1701C179.363 19.9401 179.516 20.6219 179.82 21.2154C180.141 21.809 180.582 22.2741 181.144 22.611C181.705 22.9479 182.339 23.1163 183.045 23.1163Z" fill="#F5F5F5"/>
</g>
</g>
<defs>
<linearGradient id="paint0_linear_138_43" x1="18.9081" y1="0.971924" x2="18.9081" y2="46.3803" gradientUnits="userSpaceOnUse">
<stop stop-color="#6D5BA3"/>
<stop offset="0.713153" stop-color="#957BE1" stop-opacity="0"/>
</linearGradient>
<linearGradient id="paint1_linear_138_43" x1="-0.113586" y1="20.7208" x2="37.7956" y2="20.7208" gradientUnits="userSpaceOnUse">
<stop stop-color="#9B75EC"/>
<stop offset="1" stop-color="#E2A3AC"/>
</linearGradient>
<clipPath id="clip0_138_43">
<rect width="190" height="29.0562" fill="white" transform="translate(0 0.971924)"/>
</clipPath>
</defs>
</svg>
