<svg width="297" height="106" viewBox="0 0 297 106" fill="none" xmlns="http://www.w3.org/2000/svg">
<g filter="url(#filter0_d_138_81)">
<rect x="3" y="2.90771" width="291" height="100.731" rx="6.71538" fill="white"/>
<rect x="3.55962" y="3.46733" width="289.881" height="99.6115" rx="6.15577" stroke="#5869D6" stroke-width="1.11923"/>
</g>
<path d="M16.9648 31.0078V29.5245H24.7581V31.0078H21.7391V39.2923H19.9839V31.0078H16.9648ZM25.5578 39.2923V31.9665H27.2318V33.1874H27.3082C27.4417 32.7645 27.6706 32.4386 27.995 32.2097C28.3225 31.9776 28.6961 31.8615 29.1158 31.8615C29.2112 31.8615 29.3177 31.8663 29.4353 31.8758C29.5562 31.8822 29.6563 31.8933 29.7358 31.9092V33.4974C29.6627 33.472 29.5466 33.4498 29.3876 33.4307C29.2318 33.4084 29.0808 33.3973 28.9345 33.3973C28.6198 33.3973 28.3368 33.4657 28.0856 33.6024C27.8376 33.7359 27.642 33.9219 27.4989 34.1604C27.3559 34.3989 27.2843 34.6739 27.2843 34.9855V39.2923H25.5578ZM31.0172 39.2923V31.9665H32.7437V39.2923H31.0172ZM31.8852 30.9267C31.6118 30.9267 31.3765 30.8361 31.1793 30.6549C30.9822 30.4704 30.8836 30.2495 30.8836 29.9919C30.8836 29.7312 30.9822 29.5102 31.1793 29.3289C31.3765 29.1445 31.6118 29.0523 31.8852 29.0523C32.1618 29.0523 32.3971 29.1445 32.5911 29.3289C32.7882 29.5102 32.8868 29.7312 32.8868 29.9919C32.8868 30.2495 32.7882 30.4704 32.5911 30.6549C32.3971 30.8361 32.1618 30.9267 31.8852 30.9267ZM37.8394 42.1922C37.2194 42.1922 36.6868 42.1079 36.2417 41.9394C35.7965 41.774 35.4388 41.5515 35.1685 41.2716C34.8983 40.9918 34.7107 40.6818 34.6057 40.3416L36.1606 39.9648C36.2305 40.1079 36.3323 40.2494 36.4658 40.3893C36.5994 40.5324 36.779 40.65 37.0048 40.7422C37.2337 40.8376 37.5215 40.8853 37.868 40.8853C38.3577 40.8853 38.7631 40.7661 39.0843 40.5276C39.4054 40.2923 39.566 39.9044 39.566 39.3639V37.976H39.4801C39.3911 38.154 39.2607 38.3368 39.089 38.5244C38.9205 38.712 38.6963 38.8694 38.4165 38.9966C38.1399 39.1238 37.7917 39.1874 37.372 39.1874C36.8092 39.1874 36.2989 39.0554 35.841 38.7915C35.3863 38.5244 35.0239 38.127 34.7536 37.5992C34.4865 37.0682 34.353 36.4036 34.353 35.6055C34.353 34.8011 34.4865 34.1222 34.7536 33.569C35.0239 33.0126 35.3879 32.5913 35.8458 32.3051C36.3037 32.0157 36.814 31.8711 37.3768 31.8711C37.806 31.8711 38.159 31.9442 38.4356 32.0905C38.7154 32.2335 38.938 32.4068 39.1033 32.6103C39.2687 32.8106 39.3943 32.9998 39.4801 33.1779H39.5755V31.9665H41.2782V39.4116C41.2782 40.038 41.1288 40.5562 40.8299 40.9664C40.531 41.3766 40.1224 41.6834 39.6041 41.8869C39.0858 42.0904 38.4976 42.1922 37.8394 42.1922ZM37.8537 37.8329C38.2194 37.8329 38.531 37.7438 38.7886 37.5658C39.0461 37.3877 39.2417 37.1318 39.3752 36.7979C39.5087 36.464 39.5755 36.0634 39.5755 35.596C39.5755 35.135 39.5087 34.7311 39.3752 34.3846C39.2448 34.038 39.0509 33.7693 38.7933 33.5785C38.539 33.3846 38.2258 33.2876 37.8537 33.2876C37.469 33.2876 37.1479 33.3877 36.8903 33.5881C36.6328 33.7884 36.4388 34.0634 36.3084 34.4132C36.1781 34.7598 36.1129 35.154 36.1129 35.596C36.1129 36.0443 36.1781 36.437 36.3084 36.7741C36.442 37.1079 36.6375 37.3686 36.8951 37.5562C37.1558 37.7407 37.4754 37.8329 37.8537 37.8329ZM46.368 42.1922C45.7479 42.1922 45.2154 42.1079 44.7702 41.9394C44.3251 41.774 43.9673 41.5515 43.6971 41.2716C43.4268 40.9918 43.2392 40.6818 43.1343 40.3416L44.6891 39.9648C44.7591 40.1079 44.8608 40.2494 44.9944 40.3893C45.1279 40.5324 45.3076 40.65 45.5333 40.7422C45.7623 40.8376 46.05 40.8853 46.3966 40.8853C46.8863 40.8853 47.2917 40.7661 47.6128 40.5276C47.9339 40.2923 48.0945 39.9044 48.0945 39.3639V37.976H48.0087C47.9196 38.154 47.7893 38.3368 47.6176 38.5244C47.449 38.712 47.2249 38.8694 46.9451 38.9966C46.6684 39.1238 46.3203 39.1874 45.9006 39.1874C45.3378 39.1874 44.8274 39.0554 44.3696 38.7915C43.9149 38.5244 43.5524 38.127 43.2821 37.5992C43.015 37.0682 42.8815 36.4036 42.8815 35.6055C42.8815 34.8011 43.015 34.1222 43.2821 33.569C43.5524 33.0126 43.9165 32.5913 44.3743 32.3051C44.8322 32.0157 45.3425 31.8711 45.9053 31.8711C46.3346 31.8711 46.6875 31.9442 46.9642 32.0905C47.244 32.2335 47.4665 32.4068 47.6319 32.6103C47.7972 32.8106 47.9228 32.9998 48.0087 33.1779H48.1041V31.9665H49.8067V39.4116C49.8067 40.038 49.6573 40.5562 49.3584 40.9664C49.0595 41.3766 48.6509 41.6834 48.1327 41.8869C47.6144 42.0904 47.0262 42.1922 46.368 42.1922ZM46.3823 37.8329C46.7479 37.8329 47.0595 37.7438 47.3171 37.5658C47.5746 37.3877 47.7702 37.1318 47.9037 36.7979C48.0373 36.464 48.1041 36.0634 48.1041 35.596C48.1041 35.135 48.0373 34.7311 47.9037 34.3846C47.7734 34.038 47.5794 33.7693 47.3219 33.5785C47.0675 33.3846 46.7543 33.2876 46.3823 33.2876C45.9975 33.2876 45.6764 33.3877 45.4189 33.5881C45.1613 33.7884 44.9673 34.0634 44.837 34.4132C44.7066 34.7598 44.6414 35.154 44.6414 35.596C44.6414 36.0443 44.7066 36.437 44.837 36.7741C44.9705 37.1079 45.1661 37.3686 45.4236 37.5562C45.6844 37.7407 46.0039 37.8329 46.3823 37.8329ZM54.9537 39.4354C54.2193 39.4354 53.5849 39.2828 53.0507 38.9775C52.5197 38.6691 52.1112 38.2335 51.825 37.6707C51.5388 37.1047 51.3957 36.4386 51.3957 35.6723C51.3957 34.9187 51.5388 34.2574 51.825 33.6882C52.1143 33.1159 52.5181 32.6707 53.0364 32.3528C53.5547 32.0316 54.1636 31.8711 54.8631 31.8711C55.3146 31.8711 55.7407 31.9442 56.1413 32.0905C56.5452 32.2335 56.9013 32.4561 57.2097 32.7582C57.5213 33.0602 57.7661 33.445 57.9442 33.9124C58.1222 34.3766 58.2113 34.9299 58.2113 35.5722V36.1016H52.2065V34.9378H56.5563C56.5531 34.6071 56.4816 34.313 56.3417 34.0555C56.2018 33.7947 56.0062 33.5897 55.755 33.4402C55.507 33.2908 55.2177 33.216 54.887 33.216C54.534 33.216 54.224 33.3019 53.9569 33.4736C53.6898 33.6421 53.4816 33.8647 53.3321 34.1413C53.1859 34.4148 53.1111 34.7152 53.108 35.0427V36.0586C53.108 36.4847 53.1859 36.8504 53.3417 37.1556C53.4975 37.4577 53.7153 37.6898 53.9951 37.852C54.2749 38.0109 54.6024 38.0904 54.9776 38.0904C55.2288 38.0904 55.4561 38.0555 55.6596 37.9855C55.8631 37.9124 56.0396 37.8058 56.189 37.6659C56.3385 37.526 56.4514 37.3528 56.5277 37.1461L58.1397 37.3273C58.038 37.7534 57.844 38.1254 57.5579 38.4434C57.2749 38.7581 56.9124 39.003 56.4704 39.1779C56.0285 39.3496 55.5229 39.4354 54.9537 39.4354ZM59.8062 39.2923V31.9665H61.4803V33.1874H61.5566C61.6902 32.7645 61.9191 32.4386 62.2434 32.2097C62.5709 31.9776 62.9445 31.8615 63.3642 31.8615C63.4596 31.8615 63.5661 31.8663 63.6838 31.8758C63.8046 31.8822 63.9048 31.8933 63.9843 31.9092V33.4974C63.9111 33.472 63.7951 33.4498 63.6361 33.4307C63.4803 33.4084 63.3293 33.3973 63.183 33.3973C62.8682 33.3973 62.5852 33.4657 62.334 33.6024C62.086 33.7359 61.8905 33.9219 61.7474 34.1604C61.6043 34.3989 61.5328 34.6739 61.5328 34.9855V39.2923H59.8062Z" fill="#6A6A6A"/>
<path d="M17.3941 59.4385V49.6706H19.1636V53.8057H23.6898V49.6706H25.464V59.4385H23.6898V55.289H19.1636V59.4385H17.3941ZM27.0935 51.1539V49.6706H34.8868V51.1539H31.8678V59.4385H30.1126V51.1539H27.0935ZM36.0942 51.1539V49.6706H43.8875V51.1539H40.8685V59.4385H39.1133V51.1539H36.0942ZM45.5242 59.4385V49.6706H49.1871C49.9375 49.6706 50.5671 49.8105 51.0758 50.0903C51.5878 50.3701 51.9741 50.7549 52.2348 51.2445C52.4987 51.731 52.6307 52.2843 52.6307 52.9043C52.6307 53.5307 52.4987 54.0871 52.2348 54.5736C51.9709 55.0601 51.5814 55.4433 51.0663 55.7231C50.5512 55.9997 49.9169 56.138 49.1633 56.138H46.7357V54.6833H48.9248C49.3636 54.6833 49.7229 54.607 50.0027 54.4544C50.2825 54.3018 50.4892 54.0919 50.6228 53.8248C50.7595 53.5577 50.8278 53.2509 50.8278 52.9043C50.8278 52.5577 50.7595 52.2525 50.6228 51.9886C50.4892 51.7247 50.2809 51.5196 49.998 51.3733C49.7181 51.2239 49.3573 51.1492 48.9153 51.1492H47.2937V59.4385H45.5242ZM57.7677 59.4385V49.6706H61.4307C62.1811 49.6706 62.8106 49.801 63.3194 50.0617C63.8313 50.3225 64.2176 50.6881 64.4783 51.1587C64.7422 51.6261 64.8742 52.1714 64.8742 52.7946C64.8742 53.421 64.7407 53.9647 64.4736 54.4258C64.2097 54.8836 63.8202 55.2382 63.3051 55.4894C62.7899 55.7374 62.1572 55.8614 61.4068 55.8614H58.7979V54.3924H61.1683C61.6071 54.3924 61.9664 54.332 62.2462 54.2111C62.526 54.0871 62.7327 53.9075 62.8663 53.6722C63.003 53.4337 63.0713 53.1412 63.0713 52.7946C63.0713 52.448 63.003 52.1523 62.8663 51.9075C62.7295 51.6595 62.5213 51.4719 62.2415 51.3447C61.9617 51.2143 61.6008 51.1492 61.1588 51.1492H59.5372V59.4385H57.7677ZM62.8138 55.0124L65.2319 59.4385H63.2574L60.8822 55.0124H62.8138ZM69.6993 59.5815C68.9648 59.5815 68.3304 59.4289 67.7962 59.1237C67.2653 58.8153 66.8567 58.3796 66.5705 57.8168C66.2843 57.2509 66.1413 56.5847 66.1413 55.8184C66.1413 55.0649 66.2843 54.4035 66.5705 53.8344C66.8598 53.262 67.2637 52.8169 67.7819 52.4989C68.3002 52.1778 68.9091 52.0172 69.6086 52.0172C70.0601 52.0172 70.4862 52.0903 70.8869 52.2366C71.2907 52.3797 71.6468 52.6023 71.9552 52.9043C72.2668 53.2064 72.5116 53.5911 72.6897 54.0585C72.8678 54.5227 72.9568 55.076 72.9568 55.7183V56.2477H66.9521V55.084H71.3018C71.2986 54.7533 71.2271 54.4592 71.0872 54.2016C70.9473 53.9409 70.7517 53.7358 70.5005 53.5863C70.2525 53.4369 69.9632 53.3622 69.6325 53.3622C69.2795 53.3622 68.9695 53.448 68.7024 53.6197C68.4354 53.7883 68.2271 54.0108 68.0776 54.2875C67.9314 54.5609 67.8567 54.8614 67.8535 55.1889V56.2048C67.8535 56.6308 67.9314 56.9965 68.0872 57.3017C68.243 57.6038 68.4608 57.8359 68.7406 57.9981C69.0204 58.1571 69.3479 58.2366 69.7231 58.2366C69.9743 58.2366 70.2016 58.2016 70.4051 58.1316C70.6086 58.0585 70.7851 57.952 70.9345 57.8121C71.084 57.6722 71.1969 57.4989 71.2732 57.2922L72.8853 57.4734C72.7835 57.8995 72.5895 58.2715 72.3034 58.5895C72.0204 58.9043 71.6579 59.1491 71.2159 59.324C70.774 59.4957 70.2684 59.5815 69.6993 59.5815ZM79.4404 62.1857V58.2843H79.3689C79.2799 58.4623 79.1511 58.6515 78.9826 58.8518C78.814 59.049 78.5915 59.2175 78.3148 59.3574C78.0382 59.4973 77.69 59.5672 77.2703 59.5672C76.6948 59.5672 76.1797 59.4194 75.725 59.1237C75.2703 58.828 74.911 58.3987 74.6471 57.8359C74.3832 57.2731 74.2513 56.5895 74.2513 55.7851C74.2513 54.9711 74.3848 54.2843 74.6519 53.7247C74.9222 53.1619 75.2862 52.7374 75.7441 52.4512C76.202 52.1619 76.7123 52.0172 77.2751 52.0172C77.7044 52.0172 78.0573 52.0903 78.3339 52.2366C78.6105 52.3797 78.8299 52.553 78.9921 52.7565C79.1543 52.9568 79.2799 53.146 79.3689 53.324H79.4738V52.1126H81.1717V62.1857H79.4404ZM77.752 58.1507C78.1177 58.1507 78.4293 58.0521 78.6869 57.855C78.9444 57.6547 79.14 57.3765 79.2735 57.0204C79.407 56.6642 79.4738 56.2493 79.4738 55.7755C79.4738 55.3018 79.407 54.89 79.2735 54.5402C79.1431 54.1905 78.9492 53.9186 78.6916 53.7247C78.4373 53.5307 78.1241 53.4337 77.752 53.4337C77.3673 53.4337 77.0462 53.5339 76.7886 53.7342C76.5311 53.9345 76.3371 54.2111 76.2067 54.5641C76.0764 54.917 76.0112 55.3208 76.0112 55.7755C76.0112 56.2334 76.0764 56.642 76.2067 57.0013C76.3403 57.3574 76.5358 57.6388 76.7934 57.8455C77.0541 58.049 77.3737 58.1507 77.752 58.1507ZM87.7496 56.3574V52.1126H89.4761V59.4385H87.802V58.1364H87.7257C87.5604 58.5466 87.2885 58.882 86.9102 59.1428C86.535 59.4035 86.0723 59.5339 85.5222 59.5339C85.0421 59.5339 84.6176 59.4273 84.2488 59.2143C83.8831 58.9981 83.597 58.6849 83.3903 58.2747C83.1836 57.8614 83.0803 57.3622 83.0803 56.7771V52.1126H84.8068V56.51C84.8068 56.9742 84.934 57.3431 85.1884 57.6165C85.4428 57.89 85.7766 58.0267 86.19 58.0267C86.4443 58.0267 86.6908 57.9647 86.9292 57.8407C87.1677 57.7167 87.3633 57.5323 87.5159 57.2874C87.6717 57.0394 87.7496 56.7294 87.7496 56.3574ZM94.6291 59.5815C93.8946 59.5815 93.2602 59.4289 92.7261 59.1237C92.1951 58.8153 91.7865 58.3796 91.5003 57.8168C91.2142 57.2509 91.0711 56.5847 91.0711 55.8184C91.0711 55.0649 91.2142 54.4035 91.5003 53.8344C91.7897 53.262 92.1935 52.8169 92.7118 52.4989C93.23 52.1778 93.8389 52.0172 94.5385 52.0172C94.99 52.0172 95.416 52.0903 95.8167 52.2366C96.2205 52.3797 96.5766 52.6023 96.885 52.9043C97.1966 53.2064 97.4415 53.5911 97.6195 54.0585C97.7976 54.5227 97.8866 55.076 97.8866 55.7183V56.2477H91.8819V55.084H96.2316C96.2284 54.7533 96.1569 54.4592 96.017 54.2016C95.8771 53.9409 95.6815 53.7358 95.4303 53.5863C95.1823 53.4369 94.893 53.3622 94.5623 53.3622C94.2094 53.3622 93.8994 53.448 93.6323 53.6197C93.3652 53.7883 93.1569 54.0108 93.0075 54.2875C92.8612 54.5609 92.7865 54.8614 92.7833 55.1889V56.2048C92.7833 56.6308 92.8612 56.9965 93.017 57.3017C93.1728 57.6038 93.3906 57.8359 93.6704 57.9981C93.9502 58.1571 94.2777 58.2366 94.6529 58.2366C94.9041 58.2366 95.1315 58.2016 95.335 58.1316C95.5385 58.0585 95.7149 57.952 95.8644 57.8121C96.0138 57.6722 96.1267 57.4989 96.203 57.2922L97.8151 57.4734C97.7133 57.8995 97.5194 58.2715 97.2332 58.5895C96.9502 58.9043 96.5877 59.1491 96.1458 59.324C95.7038 59.4957 95.1982 59.5815 94.6291 59.5815ZM105.272 54.049L103.698 54.2207C103.653 54.0617 103.575 53.9123 103.464 53.7724C103.356 53.6325 103.21 53.5196 103.025 53.4337C102.841 53.3479 102.615 53.3049 102.348 53.3049C101.989 53.3049 101.687 53.3829 101.442 53.5387C101.2 53.6945 101.081 53.8964 101.084 54.1444C101.081 54.3574 101.159 54.5307 101.318 54.6642C101.48 54.7978 101.747 54.9075 102.119 54.9933L103.369 55.2604C104.062 55.4099 104.577 55.6467 104.914 55.9711C105.254 56.2954 105.426 56.7199 105.429 57.2445C105.426 57.7056 105.291 58.1126 105.024 58.4655C104.76 58.8153 104.393 59.0887 103.922 59.2858C103.451 59.483 102.911 59.5815 102.3 59.5815C101.404 59.5815 100.682 59.3939 100.135 59.0187C99.5881 58.6404 99.2622 58.1141 99.1572 57.4401L100.841 57.2779C100.917 57.6086 101.079 57.8582 101.327 58.0267C101.575 58.1952 101.898 58.2795 102.296 58.2795C102.706 58.2795 103.035 58.1952 103.283 58.0267C103.534 57.8582 103.66 57.6499 103.66 57.4019C103.66 57.1921 103.579 57.0188 103.416 56.882C103.257 56.7453 103.009 56.6404 102.672 56.5673L101.423 56.3049C100.72 56.1587 100.2 55.9122 99.8631 55.5657C99.5261 55.2159 99.3591 54.7739 99.3623 54.2398C99.3591 53.7883 99.4816 53.3972 99.7296 53.0665C99.9808 52.7326 100.329 52.4751 100.774 52.2938C101.222 52.1094 101.739 52.0172 102.324 52.0172C103.183 52.0172 103.858 52.2 104.351 52.5657C104.847 52.9313 105.154 53.4258 105.272 54.049ZM110.645 52.1126V53.448H106.434V52.1126H110.645ZM107.474 50.3574H109.2V57.235C109.2 57.4671 109.235 57.6451 109.305 57.7692C109.378 57.89 109.474 57.9727 109.591 58.0172C109.709 58.0617 109.839 58.0839 109.982 58.0839C110.09 58.0839 110.189 58.076 110.278 58.0601C110.37 58.0442 110.44 58.0299 110.488 58.0172L110.779 59.3669C110.687 59.3987 110.555 59.4337 110.383 59.4718C110.214 59.51 110.008 59.5323 109.763 59.5386C109.33 59.5513 108.941 59.4862 108.594 59.3431C108.248 59.1968 107.973 58.9711 107.769 58.6658C107.569 58.3606 107.47 57.979 107.474 57.5211V50.3574Z" fill="#212121"/>
<path d="M17.5038 86.3V76.5322H20.9855C21.7422 76.5322 22.3702 76.6625 22.8694 76.9233C23.3718 77.184 23.747 77.5449 23.995 78.0059C24.243 78.4638 24.367 78.9932 24.367 79.5941C24.367 80.1919 24.2414 80.7181 23.9902 81.1728C23.7422 81.6243 23.367 81.9757 22.8647 82.2269C22.3654 82.4781 21.7375 82.6037 20.9807 82.6037H18.3432V81.335H20.8472C21.3241 81.335 21.712 81.2666 22.0109 81.1299C22.313 80.9932 22.534 80.7945 22.6739 80.5337C22.8138 80.273 22.8837 79.9598 22.8837 79.5941C22.8837 79.2253 22.8122 78.9058 22.6691 78.6355C22.5292 78.3652 22.3082 78.1585 22.0062 78.0155C21.7073 77.8692 21.3146 77.7961 20.8281 77.7961H18.9776V86.3H17.5038ZM22.3257 81.893L24.739 86.3H23.0602L20.6946 81.893H22.3257ZM29.2457 86.4478C28.524 86.4478 27.9024 86.2936 27.3809 85.9852C26.8626 85.6736 26.462 85.2364 26.179 84.6736C25.8992 84.1076 25.7593 83.4447 25.7593 82.6847C25.7593 81.9344 25.8992 81.273 26.179 80.7007C26.462 80.1283 26.8563 79.6816 27.3618 79.3604C27.8706 79.0393 28.4651 78.8787 29.1456 78.8787C29.5589 78.8787 29.9596 78.9471 30.3475 79.0838C30.7354 79.2205 31.0836 79.4352 31.392 79.7277C31.7004 80.0202 31.9437 80.4002 32.1217 80.8676C32.2998 81.3318 32.3888 81.8962 32.3888 82.5607V83.0663H26.5653V81.9979H30.9914C30.9914 81.6227 30.9151 81.2905 30.7624 81.0011C30.6098 80.7086 30.3952 80.4781 30.1186 80.3096C29.8451 80.141 29.524 80.0568 29.1551 80.0568C28.7545 80.0568 28.4047 80.1553 28.1058 80.3525C27.8101 80.5464 27.5812 80.8008 27.419 81.1156C27.2601 81.4272 27.1806 81.7658 27.1806 82.1315V82.9661C27.1806 83.4558 27.2664 83.8723 27.4381 84.2157C27.613 84.5591 27.8562 84.8215 28.1678 85.0027C28.4795 85.1808 28.8435 85.2698 29.2601 85.2698C29.5303 85.2698 29.7767 85.2316 29.9993 85.1553C30.2219 85.0758 30.4143 84.9582 30.5764 84.8024C30.7386 84.6466 30.8626 84.4542 30.9484 84.2253L32.2982 84.4685C32.1901 84.866 31.9961 85.2141 31.7163 85.513C31.4397 85.8087 31.0915 86.0393 30.6718 86.2046C30.2553 86.3668 29.7799 86.4478 29.2457 86.4478ZM39.0513 89.0472V85.1601H38.9655C38.8796 85.3159 38.7556 85.494 38.5934 85.6943C38.4345 85.8946 38.2151 86.0695 37.9353 86.2189C37.6554 86.3683 37.293 86.4431 36.8478 86.4431C36.2564 86.4431 35.7286 86.292 35.2644 85.99C34.8033 85.6847 34.4408 85.2507 34.1769 84.6879C33.9162 84.1219 33.7858 83.4431 33.7858 82.6514C33.7858 81.8596 33.9178 81.1824 34.1817 80.6196C34.4488 80.0568 34.8144 79.6259 35.2787 79.3271C35.7429 79.0282 36.2691 78.8787 36.8574 78.8787C37.312 78.8787 37.6777 78.955 37.9543 79.1077C38.2341 79.2571 38.4504 79.432 38.603 79.6323C38.7588 79.8326 38.8796 80.0091 38.9655 80.1617H39.0847V78.9741H40.4774V89.0472H39.0513ZM37.1626 85.2269C37.5728 85.2269 37.9194 85.1188 38.2023 84.9025C38.4885 84.6831 38.7047 84.3795 38.851 83.9916C39.0004 83.6037 39.0752 83.1522 39.0752 82.6371C39.0752 82.1283 39.002 81.6832 38.8558 81.3016C38.7095 80.92 38.4949 80.6228 38.2119 80.4097C37.9289 80.1967 37.5791 80.0902 37.1626 80.0902C36.7334 80.0902 36.3756 80.2015 36.0895 80.424C35.8033 80.6466 35.5871 80.9503 35.4408 81.335C35.2977 81.7197 35.2262 82.1537 35.2262 82.6371C35.2262 83.1267 35.2993 83.5671 35.4456 83.9582C35.5919 84.3493 35.8081 84.6593 36.0942 84.8882C36.3836 85.114 36.7397 85.2269 37.1626 85.2269ZM47.1697 83.2618V78.9741H48.6005V86.3H47.1983V85.0313H47.122C46.9535 85.4224 46.6832 85.7483 46.3112 86.0091C45.9423 86.2666 45.4829 86.3954 44.9328 86.3954C44.4622 86.3954 44.0457 86.292 43.6832 86.0854C43.3239 85.8755 43.0409 85.5655 42.8342 85.1553C42.6307 84.7451 42.529 84.238 42.529 83.6339V78.9741H43.9551V83.4622C43.9551 83.9614 44.0934 84.3588 44.37 84.6545C44.6466 84.9502 45.0059 85.0981 45.4479 85.0981C45.715 85.0981 45.9805 85.0313 46.2444 84.8978C46.5115 84.7642 46.7325 84.5623 46.9073 84.292C47.0854 84.0218 47.1728 83.6784 47.1697 83.2618ZM53.8083 86.4478C53.0865 86.4478 52.4649 86.2936 51.9435 85.9852C51.4252 85.6736 51.0245 85.2364 50.7416 84.6736C50.4618 84.1076 50.3218 83.4447 50.3218 82.6847C50.3218 81.9344 50.4618 81.273 50.7416 80.7007C51.0245 80.1283 51.4188 79.6816 51.9244 79.3604C52.4331 79.0393 53.0277 78.8787 53.7082 78.8787C54.1215 78.8787 54.5221 78.9471 54.9101 79.0838C55.298 79.2205 55.6461 79.4352 55.9546 79.7277C56.263 80.0202 56.5062 80.4002 56.6843 80.8676C56.8624 81.3318 56.9514 81.8962 56.9514 82.5607V83.0663H51.1279V81.9979H55.5539C55.5539 81.6227 55.4776 81.2905 55.325 81.0011C55.1724 80.7086 54.9578 80.4781 54.6811 80.3096C54.4077 80.141 54.0865 80.0568 53.7177 80.0568C53.3171 80.0568 52.9673 80.1553 52.6684 80.3525C52.3727 80.5464 52.1438 80.8008 51.9816 81.1156C51.8226 81.4272 51.7431 81.7658 51.7431 82.1315V82.9661C51.7431 83.4558 51.829 83.8723 52.0007 84.2157C52.1756 84.5591 52.4188 84.8215 52.7304 85.0027C53.042 85.1808 53.4061 85.2698 53.8226 85.2698C54.0929 85.2698 54.3393 85.2316 54.5619 85.1553C54.7845 85.0758 54.9768 84.9582 55.139 84.8024C55.3012 84.6466 55.4252 84.4542 55.511 84.2253L56.8608 84.4685C56.7527 84.866 56.5587 85.2141 56.2789 85.513C56.0023 85.8087 55.6541 86.0393 55.2344 86.2046C54.8178 86.3668 54.3425 86.4478 53.8083 86.4478ZM64.1576 80.7627L62.8651 80.9916C62.811 80.8262 62.7252 80.6689 62.6075 80.5194C62.4931 80.37 62.3372 80.2476 62.1401 80.1522C61.943 80.0568 61.6966 80.0091 61.4008 80.0091C60.997 80.0091 60.66 80.0997 60.3897 80.2809C60.1195 80.459 59.9843 80.6895 59.9843 80.9725C59.9843 81.2173 60.0749 81.4145 60.2562 81.5639C60.4374 81.7134 60.7299 81.8358 61.1338 81.9312L62.2975 82.1983C62.9716 82.3541 63.474 82.5941 63.8046 82.9184C64.1353 83.2428 64.3007 83.6641 64.3007 84.1824C64.3007 84.6211 64.1735 85.0122 63.9191 85.3556C63.6679 85.6959 63.3166 85.9629 62.8651 86.1569C62.4167 86.3509 61.8969 86.4478 61.3055 86.4478C60.4851 86.4478 59.8158 86.273 59.2975 85.9232C58.7792 85.5703 58.4613 85.0695 58.3436 84.4208L59.722 84.211C59.8079 84.5703 59.9843 84.8421 60.2514 85.0265C60.5185 85.2078 60.8667 85.2984 61.2959 85.2984C61.7633 85.2984 62.1369 85.2014 62.4167 85.0075C62.6965 84.8103 62.8365 84.5703 62.8365 84.2873C62.8365 84.0583 62.7506 83.866 62.5789 83.7102C62.4104 83.5544 62.1512 83.4367 61.8015 83.3572L60.5614 83.0854C59.8778 82.9296 59.3722 82.6816 59.0447 82.3413C58.7204 82.0011 58.5583 81.5703 58.5583 81.0488C58.5583 80.6164 58.6791 80.238 58.9207 79.9137C59.1624 79.5894 59.4962 79.3366 59.9223 79.1554C60.3484 78.9709 60.8365 78.8787 61.3865 78.8787C62.1783 78.8787 62.8015 79.0504 63.2562 79.3938C63.7109 79.734 64.0113 80.1903 64.1576 80.7627ZM69.4226 78.9741V80.1188H65.4211V78.9741H69.4226ZM66.4942 77.219H67.9203V84.149C67.9203 84.4256 67.9616 84.6339 68.0443 84.7738C68.1269 84.9105 68.2334 85.0043 68.3638 85.0552C68.4974 85.1029 68.642 85.1267 68.7978 85.1267C68.9123 85.1267 69.0125 85.1188 69.0983 85.1029C69.1842 85.087 69.2509 85.0742 69.2986 85.0647L69.5562 86.2428C69.4735 86.2746 69.3559 86.3063 69.2032 86.3381C69.0506 86.3731 68.8598 86.3922 68.6309 86.3954C68.2557 86.4017 67.9059 86.335 67.5816 86.1951C67.2573 86.0552 66.995 85.8389 66.7947 85.5464C66.5943 85.2539 66.4942 84.8866 66.4942 84.4447V77.219ZM71.4063 76.5322H73.1948L76.3045 84.1251H76.419L79.5287 76.5322H81.3172V86.3H79.915V79.2317H79.8244L76.9436 86.2857H75.7799L72.8991 79.2269H72.8085V86.3H71.4063V76.5322ZM86.5656 86.4478C85.8788 86.4478 85.2794 86.2904 84.7675 85.9757C84.2556 85.6609 83.8581 85.2205 83.5751 84.6545C83.2921 84.0886 83.1506 83.4272 83.1506 82.6704C83.1506 81.9105 83.2921 81.246 83.5751 80.6768C83.8581 80.1077 84.2556 79.6657 84.7675 79.3509C85.2794 79.0361 85.8788 78.8787 86.5656 78.8787C87.2524 78.8787 87.8517 79.0361 88.3636 79.3509C88.8756 79.6657 89.273 80.1077 89.556 80.6768C89.839 81.246 89.9805 81.9105 89.9805 82.6704C89.9805 83.4272 89.839 84.0886 89.556 84.6545C89.273 85.2205 88.8756 85.6609 88.3636 85.9757C87.8517 86.2904 87.2524 86.4478 86.5656 86.4478ZM86.5703 85.2507C87.0155 85.2507 87.3843 85.1331 87.6768 84.8978C87.9694 84.6625 88.1856 84.3493 88.3255 83.9582C88.4686 83.5671 88.5401 83.1363 88.5401 82.6657C88.5401 82.1983 88.4686 81.769 88.3255 81.3779C88.1856 80.9836 87.9694 80.6673 87.6768 80.4288C87.3843 80.1903 87.0155 80.0711 86.5703 80.0711C86.122 80.0711 85.75 80.1903 85.4543 80.4288C85.1617 80.6673 84.9439 80.9836 84.8009 81.3779C84.661 81.769 84.591 82.1983 84.591 82.6657C84.591 83.1363 84.661 83.5671 84.8009 83.9582C84.9439 84.3493 85.1617 84.6625 85.4543 84.8978C85.75 85.1331 86.122 85.2507 86.5703 85.2507ZM94.449 86.4431C93.8576 86.4431 93.3298 86.292 92.8656 85.99C92.4045 85.6847 92.042 85.2507 91.7781 84.6879C91.5174 84.1219 91.387 83.4431 91.387 82.6514C91.387 81.8596 91.519 81.1824 91.7829 80.6196C92.05 80.0568 92.4156 79.6259 92.8799 79.3271C93.3441 79.0282 93.8703 78.8787 94.4586 78.8787C94.9133 78.8787 95.2789 78.955 95.5555 79.1077C95.8353 79.2571 96.0516 79.432 96.2042 79.6323C96.36 79.8326 96.4808 80.0091 96.5667 80.1617H96.6525V76.5322H98.0786V86.3H96.6859V85.1601H96.5667C96.4808 85.3159 96.3568 85.494 96.1946 85.6943C96.0357 85.8946 95.8163 86.0695 95.5365 86.2189C95.2567 86.3683 94.8942 86.4431 94.449 86.4431ZM94.7638 85.2269C95.174 85.2269 95.5206 85.1188 95.8035 84.9025C96.0897 84.6831 96.3059 84.3795 96.4522 83.9916C96.6016 83.6037 96.6764 83.1522 96.6764 82.6371C96.6764 82.1283 96.6032 81.6832 96.457 81.3016C96.3107 80.92 96.0961 80.6228 95.8131 80.4097C95.5301 80.1967 95.1803 80.0902 94.7638 80.0902C94.3346 80.0902 93.9768 80.2015 93.6907 80.424C93.4045 80.6466 93.1883 80.9503 93.042 81.335C92.899 81.7197 92.8274 82.1537 92.8274 82.6371C92.8274 83.1267 92.9005 83.5671 93.0468 83.9582C93.1931 84.3493 93.4093 84.6593 93.6955 84.8882C93.9848 85.114 94.3409 85.2269 94.7638 85.2269ZM103.406 86.4478C102.684 86.4478 102.062 86.2936 101.541 85.9852C101.022 85.6736 100.622 85.2364 100.339 84.6736C100.059 84.1076 99.9192 83.4447 99.9192 82.6847C99.9192 81.9344 100.059 81.273 100.339 80.7007C100.622 80.1283 101.016 79.6816 101.522 79.3604C102.03 79.0393 102.625 78.8787 103.305 78.8787C103.719 78.8787 104.119 78.9471 104.507 79.0838C104.895 79.2205 105.243 79.4352 105.552 79.7277C105.86 80.0202 106.104 80.4002 106.282 80.8676C106.46 81.3318 106.549 81.8962 106.549 82.5607V83.0663H100.725V81.9979H105.151C105.151 81.6227 105.075 81.2905 104.922 81.0011C104.77 80.7086 104.555 80.4781 104.278 80.3096C104.005 80.141 103.684 80.0568 103.315 80.0568C102.914 80.0568 102.565 80.1553 102.266 80.3525C101.97 80.5464 101.741 80.8008 101.579 81.1156C101.42 81.4272 101.34 81.7658 101.34 82.1315V82.9661C101.34 83.4558 101.426 83.8723 101.598 84.2157C101.773 84.5591 102.016 84.8215 102.328 85.0027C102.639 85.1808 103.003 85.2698 103.42 85.2698C103.69 85.2698 103.937 85.2316 104.159 85.1553C104.382 85.0758 104.574 84.9582 104.736 84.8024C104.898 84.6466 105.022 84.4542 105.108 84.2253L106.458 84.4685C106.35 84.866 106.156 85.2141 105.876 85.513C105.6 85.8087 105.251 86.0393 104.832 86.2046C104.415 86.3668 103.94 86.4478 103.406 86.4478ZM109.691 76.5322V86.3H108.265V76.5322H109.691ZM112.684 86.3906C112.423 86.3906 112.199 86.2984 112.011 86.114C111.824 85.9264 111.73 85.7006 111.73 85.4367C111.73 85.176 111.824 84.9534 112.011 84.769C112.199 84.5814 112.423 84.4876 112.684 84.4876C112.944 84.4876 113.169 84.5814 113.356 84.769C113.544 84.9534 113.638 85.176 113.638 85.4367C113.638 85.6116 113.593 85.7722 113.504 85.9184C113.418 86.0615 113.304 86.176 113.161 86.2618C113.018 86.3477 112.859 86.3906 112.684 86.3906ZM112.684 81.0584C112.423 81.0584 112.199 80.9646 112.011 80.777C111.824 80.5894 111.73 80.3652 111.73 80.1045C111.73 79.8437 111.824 79.6212 112.011 79.4367C112.199 79.2492 112.423 79.1554 112.684 79.1554C112.944 79.1554 113.169 79.2492 113.356 79.4367C113.544 79.6212 113.638 79.8437 113.638 80.1045C113.638 80.2794 113.593 80.4399 113.504 80.5862C113.418 80.7293 113.304 80.8437 113.161 80.9296C113.018 81.0154 112.859 81.0584 112.684 81.0584Z" fill="#6A6A6A"/>
<path d="M116.504 86.3V76.5322H119.985C120.742 76.5322 121.37 76.6625 121.869 76.9233C122.372 77.184 122.747 77.5449 122.995 78.0059C123.243 78.4638 123.367 78.9932 123.367 79.5941C123.367 80.1919 123.241 80.7181 122.99 81.1728C122.742 81.6243 122.367 81.9757 121.865 82.2269C121.365 82.4781 120.737 82.6037 119.981 82.6037H117.343V81.335H119.847C120.324 81.335 120.712 81.2666 121.011 81.1299C121.313 80.9932 121.534 80.7945 121.674 80.5337C121.814 80.273 121.884 79.9598 121.884 79.5941C121.884 79.2253 121.812 78.9058 121.669 78.6355C121.529 78.3652 121.308 78.1585 121.006 78.0155C120.707 77.8692 120.315 77.7961 119.828 77.7961H117.978V86.3H116.504ZM121.326 81.893L123.739 86.3H122.06L119.695 81.893H121.326ZM127.312 86.4621C126.848 86.4621 126.428 86.3763 126.053 86.2046C125.678 86.0297 125.38 85.7769 125.161 85.4463C124.945 85.1156 124.837 84.7102 124.837 84.23C124.837 83.8167 124.916 83.4765 125.075 83.2094C125.234 82.9423 125.449 82.7308 125.719 82.575C125.989 82.4192 126.291 82.3016 126.625 82.2221C126.959 82.1426 127.299 82.0822 127.646 82.0409C128.085 81.99 128.441 81.9487 128.714 81.9169C128.988 81.8819 129.187 81.8262 129.311 81.7499C129.435 81.6736 129.497 81.5496 129.497 81.3779V81.3445C129.497 80.928 129.379 80.6053 129.144 80.3763C128.911 80.1474 128.565 80.0329 128.104 80.0329C127.624 80.0329 127.245 80.1394 126.969 80.3525C126.695 80.5623 126.506 80.796 126.401 81.0536L125.061 80.7483C125.22 80.3032 125.452 79.9439 125.757 79.6705C126.066 79.3938 126.42 79.1935 126.821 79.0695C127.222 78.9423 127.643 78.8787 128.085 78.8787C128.377 78.8787 128.687 78.9137 129.015 78.9837C129.346 79.0504 129.654 79.1744 129.94 79.3557C130.229 79.5369 130.466 79.796 130.651 80.1331C130.835 80.467 130.927 80.901 130.927 81.4351V86.3H129.535V85.2984H129.477C129.385 85.4828 129.247 85.6641 129.063 85.8421C128.878 86.0202 128.641 86.168 128.352 86.2857C128.063 86.4033 127.716 86.4621 127.312 86.4621ZM127.622 85.3175C128.016 85.3175 128.353 85.2396 128.633 85.0838C128.916 84.928 129.131 84.7245 129.277 84.4733C129.427 84.2189 129.501 83.9471 129.501 83.6577V82.7134C129.45 82.7642 129.352 82.8119 129.206 82.8564C129.063 82.8978 128.899 82.9343 128.714 82.9661C128.53 82.9948 128.35 83.0218 128.175 83.0472C128.001 83.0695 127.854 83.0886 127.737 83.1045C127.46 83.1394 127.207 83.1983 126.978 83.2809C126.753 83.3636 126.571 83.4828 126.435 83.6386C126.301 83.7913 126.234 83.9948 126.234 84.2491C126.234 84.6021 126.365 84.8692 126.625 85.0504C126.886 85.2285 127.218 85.3175 127.622 85.3175ZM132.808 86.3V85.3223L136.777 80.2809V80.2142H132.937V78.9741H138.556V80.0139L134.74 84.9932V85.0599H138.689V86.3H132.808ZM143.382 86.4478C142.695 86.4478 142.096 86.2904 141.584 85.9757C141.072 85.6609 140.674 85.2205 140.391 84.6545C140.108 84.0886 139.967 83.4272 139.967 82.6704C139.967 81.9105 140.108 81.246 140.391 80.6768C140.674 80.1077 141.072 79.6657 141.584 79.3509C142.096 79.0361 142.695 78.8787 143.382 78.8787C144.069 78.8787 144.668 79.0361 145.18 79.3509C145.692 79.6657 146.089 80.1077 146.372 80.6768C146.655 81.246 146.797 81.9105 146.797 82.6704C146.797 83.4272 146.655 84.0886 146.372 84.6545C146.089 85.2205 145.692 85.6609 145.18 85.9757C144.668 86.2904 144.069 86.4478 143.382 86.4478ZM143.387 85.2507C143.832 85.2507 144.201 85.1331 144.493 84.8978C144.786 84.6625 145.002 84.3493 145.142 83.9582C145.285 83.5671 145.356 83.1363 145.356 82.6657C145.356 82.1983 145.285 81.769 145.142 81.3779C145.002 80.9836 144.786 80.6673 144.493 80.4288C144.201 80.1903 143.832 80.0711 143.387 80.0711C142.938 80.0711 142.566 80.1903 142.271 80.4288C141.978 80.6673 141.76 80.9836 141.617 81.3779C141.477 81.769 141.407 82.1983 141.407 82.6657C141.407 83.1363 141.477 83.5671 141.617 83.9582C141.76 84.3493 141.978 84.6625 142.271 84.8978C142.566 85.1331 142.938 85.2507 143.387 85.2507ZM148.523 86.3V78.9741H149.901V80.1379H149.978C150.111 79.7436 150.346 79.4336 150.684 79.2078C151.024 78.9789 151.408 78.8644 151.838 78.8644C151.927 78.8644 152.032 78.8676 152.153 78.874C152.277 78.8803 152.373 78.8883 152.443 78.8978V80.2619C152.386 80.246 152.284 80.2285 152.138 80.2094C151.992 80.1871 151.846 80.176 151.699 80.176C151.362 80.176 151.062 80.2476 150.798 80.3906C150.537 80.5305 150.331 80.7261 150.178 80.9773C150.025 81.2253 149.949 81.5083 149.949 81.8262V86.3H148.523ZM153.812 89.0472V78.9741H155.205V80.1617H155.324C155.406 80.0091 155.526 79.8326 155.681 79.6323C155.837 79.432 156.053 79.2571 156.33 79.1077C156.607 78.955 156.972 78.8787 157.427 78.8787C158.019 78.8787 158.546 79.0282 159.011 79.3271C159.475 79.6259 159.839 80.0568 160.103 80.6196C160.37 81.1824 160.503 81.8596 160.503 82.6514C160.503 83.4431 160.371 84.1219 160.108 84.6879C159.844 85.2507 159.481 85.6847 159.02 85.99C158.559 86.292 158.033 86.4431 157.441 86.4431C156.996 86.4431 156.632 86.3683 156.349 86.2189C156.069 86.0695 155.85 85.8946 155.691 85.6943C155.532 85.494 155.41 85.3159 155.324 85.1601H155.238V89.0472H153.812ZM155.209 82.6371C155.209 83.1522 155.284 83.6037 155.433 83.9916C155.583 84.3795 155.799 84.6831 156.082 84.9025C156.365 85.1188 156.712 85.2269 157.122 85.2269C157.548 85.2269 157.904 85.114 158.19 84.8882C158.476 84.6593 158.693 84.3493 158.839 83.9582C158.988 83.5671 159.063 83.1267 159.063 82.6371C159.063 82.1537 158.99 81.7197 158.844 81.335C158.701 80.9503 158.484 80.6466 158.195 80.424C157.909 80.2015 157.551 80.0902 157.122 80.0902C156.708 80.0902 156.359 80.1967 156.073 80.4097C155.79 80.6228 155.575 80.92 155.429 81.3016C155.282 81.6832 155.209 82.1283 155.209 82.6371ZM164.367 86.4621C163.903 86.4621 163.483 86.3763 163.108 86.2046C162.733 86.0297 162.436 85.7769 162.216 85.4463C162 85.1156 161.892 84.7102 161.892 84.23C161.892 83.8167 161.972 83.4765 162.131 83.2094C162.29 82.9423 162.504 82.7308 162.774 82.575C163.045 82.4192 163.347 82.3016 163.681 82.2221C164.014 82.1426 164.355 82.0822 164.701 82.0409C165.14 81.99 165.496 81.9487 165.77 81.9169C166.043 81.8819 166.242 81.8262 166.366 81.7499C166.49 81.6736 166.552 81.5496 166.552 81.3779V81.3445C166.552 80.928 166.434 80.6053 166.199 80.3763C165.967 80.1474 165.62 80.0329 165.159 80.0329C164.679 80.0329 164.301 80.1394 164.024 80.3525C163.751 80.5623 163.561 80.796 163.456 81.0536L162.116 80.7483C162.275 80.3032 162.507 79.9439 162.813 79.6705C163.121 79.3938 163.476 79.1935 163.876 79.0695C164.277 78.9423 164.698 78.8787 165.14 78.8787C165.433 78.8787 165.743 78.9137 166.07 78.9837C166.401 79.0504 166.709 79.1744 166.995 79.3557C167.285 79.5369 167.522 79.796 167.706 80.1331C167.89 80.467 167.983 80.901 167.983 81.4351V86.3H166.59V85.2984H166.533C166.441 85.4828 166.302 85.6641 166.118 85.8421C165.933 86.0202 165.696 86.168 165.407 86.2857C165.118 86.4033 164.771 86.4621 164.367 86.4621ZM164.677 85.3175C165.072 85.3175 165.409 85.2396 165.689 85.0838C165.972 84.928 166.186 84.7245 166.332 84.4733C166.482 84.2189 166.557 83.9471 166.557 83.6577V82.7134C166.506 82.7642 166.407 82.8119 166.261 82.8564C166.118 82.8978 165.954 82.9343 165.77 82.9661C165.585 82.9948 165.406 83.0218 165.231 83.0472C165.056 83.0695 164.91 83.0886 164.792 83.1045C164.515 83.1394 164.262 83.1983 164.034 83.2809C163.808 83.3636 163.627 83.4828 163.49 83.6386C163.356 83.7913 163.29 83.9948 163.29 84.2491C163.29 84.6021 163.42 84.8692 163.681 85.0504C163.941 85.2285 164.274 85.3175 164.677 85.3175ZM170.655 89.0472C170.442 89.0472 170.249 89.0297 170.074 88.9947C169.899 88.9629 169.768 88.928 169.683 88.8898L170.026 87.7213C170.287 87.7912 170.519 87.8214 170.722 87.8119C170.926 87.8024 171.105 87.7261 171.261 87.583C171.42 87.4399 171.56 87.2062 171.681 86.8819L171.857 86.3954L169.177 78.9741H170.703L172.559 84.6593H172.635L174.49 78.9741H176.021L173.002 87.2777C172.862 87.6593 172.684 87.982 172.468 88.2459C172.252 88.513 171.994 88.7133 171.695 88.8469C171.396 88.9804 171.05 89.0472 170.655 89.0472ZM177.61 86.3V76.5322H181.092C181.852 76.5322 182.481 76.6705 182.981 76.9471C183.48 77.2237 183.853 77.6021 184.101 78.0822C184.349 78.5592 184.473 79.0965 184.473 79.6943C184.473 80.2953 184.348 80.8358 184.097 81.3159C183.849 81.7929 183.473 82.1712 182.971 82.451C182.472 82.7277 181.844 82.866 181.087 82.866H178.693V81.6164H180.954C181.434 81.6164 181.823 81.5337 182.122 81.3684C182.421 81.1999 182.64 80.9709 182.78 80.6816C182.92 80.3922 182.99 80.0631 182.99 79.6943C182.99 79.3255 182.92 78.998 182.78 78.7118C182.64 78.4256 182.419 78.2015 182.117 78.0393C181.818 77.8771 181.424 77.7961 180.934 77.7961H179.084V86.3H177.61ZM188.287 86.4621C187.823 86.4621 187.403 86.3763 187.028 86.2046C186.653 86.0297 186.356 85.7769 186.136 85.4463C185.92 85.1156 185.812 84.7102 185.812 84.23C185.812 83.8167 185.891 83.4765 186.05 83.2094C186.209 82.9423 186.424 82.7308 186.694 82.575C186.965 82.4192 187.267 82.3016 187.6 82.2221C187.934 82.1426 188.275 82.0822 188.621 82.0409C189.06 81.99 189.416 81.9487 189.69 81.9169C189.963 81.8819 190.162 81.8262 190.286 81.7499C190.41 81.6736 190.472 81.5496 190.472 81.3779V81.3445C190.472 80.928 190.354 80.6053 190.119 80.3763C189.887 80.1474 189.54 80.0329 189.079 80.0329C188.599 80.0329 188.221 80.1394 187.944 80.3525C187.67 80.5623 187.481 80.796 187.376 81.0536L186.036 80.7483C186.195 80.3032 186.427 79.9439 186.732 79.6705C187.041 79.3938 187.395 79.1935 187.796 79.0695C188.197 78.9423 188.618 78.8787 189.06 78.8787C189.352 78.8787 189.662 78.9137 189.99 78.9837C190.321 79.0504 190.629 79.1744 190.915 79.3557C191.205 79.5369 191.441 79.796 191.626 80.1331C191.81 80.467 191.903 80.901 191.903 81.4351V86.3H190.51V85.2984H190.453C190.36 85.4828 190.222 85.6641 190.038 85.8421C189.853 86.0202 189.616 86.168 189.327 86.2857C189.038 86.4033 188.691 86.4621 188.287 86.4621ZM188.597 85.3175C188.992 85.3175 189.329 85.2396 189.608 85.0838C189.891 84.928 190.106 84.7245 190.252 84.4733C190.402 84.2189 190.476 83.9471 190.476 83.6577V82.7134C190.426 82.7642 190.327 82.8119 190.181 82.8564C190.038 82.8978 189.874 82.9343 189.69 82.9661C189.505 82.9948 189.325 83.0218 189.151 83.0472C188.976 83.0695 188.829 83.0886 188.712 83.1045C188.435 83.1394 188.182 83.1983 187.953 83.2809C187.728 83.3636 187.546 83.4828 187.41 83.6386C187.276 83.7913 187.209 83.9948 187.209 84.2491C187.209 84.6021 187.34 84.8692 187.6 85.0504C187.861 85.2285 188.193 85.3175 188.597 85.3175ZM194.575 89.0472C194.362 89.0472 194.168 89.0297 193.994 88.9947C193.819 88.9629 193.688 88.928 193.602 88.8898L193.946 87.7213C194.207 87.7912 194.439 87.8214 194.642 87.8119C194.846 87.8024 195.025 87.7261 195.181 87.583C195.34 87.4399 195.48 87.2062 195.601 86.8819L195.777 86.3954L193.097 78.9741H194.623L196.478 84.6593H196.555L198.41 78.9741H199.941L196.922 87.2777C196.782 87.6593 196.604 87.982 196.388 88.2459C196.172 88.513 195.914 88.7133 195.615 88.8469C195.316 88.9804 194.97 89.0472 194.575 89.0472ZM201.416 86.3V78.9741H202.784V80.1665H202.875C203.028 79.7627 203.277 79.4479 203.624 79.2221C203.97 78.9932 204.385 78.8787 204.869 78.8787C205.358 78.8787 205.768 78.9932 206.099 79.2221C206.433 79.4511 206.679 79.7658 206.838 80.1665H206.915C207.09 79.7754 207.368 79.4638 207.749 79.2317C208.131 78.9964 208.586 78.8787 209.113 78.8787C209.778 78.8787 210.32 79.087 210.74 79.5035C211.163 79.9201 211.374 80.548 211.374 81.3875V86.3H209.948V81.521C209.948 81.025 209.813 80.6657 209.543 80.4431C209.272 80.2205 208.95 80.1092 208.574 80.1092C208.11 80.1092 207.749 80.2523 207.492 80.5385C207.234 80.8215 207.105 81.1855 207.105 81.6307V86.3H205.684V81.4304C205.684 81.0329 205.56 80.7134 205.312 80.4717C205.064 80.2301 204.741 80.1092 204.344 80.1092C204.074 80.1092 203.824 80.1808 203.595 80.3239C203.369 80.4638 203.187 80.6593 203.047 80.9105C202.91 81.1617 202.842 81.4526 202.842 81.7833V86.3H201.416ZM216.577 86.4478C215.855 86.4478 215.234 86.2936 214.712 85.9852C214.194 85.6736 213.793 85.2364 213.51 84.6736C213.231 84.1076 213.091 83.4447 213.091 82.6847C213.091 81.9344 213.231 81.273 213.51 80.7007C213.793 80.1283 214.188 79.6816 214.693 79.3604C215.202 79.0393 215.797 78.8787 216.477 78.8787C216.89 78.8787 217.291 78.9471 217.679 79.0838C218.067 79.2205 218.415 79.4352 218.723 79.7277C219.032 80.0202 219.275 80.4002 219.453 80.8676C219.631 81.3318 219.72 81.8962 219.72 82.5607V83.0663H213.897V81.9979H218.323C218.323 81.6227 218.246 81.2905 218.094 81.0011C217.941 80.7086 217.727 80.4781 217.45 80.3096C217.177 80.141 216.855 80.0568 216.487 80.0568C216.086 80.0568 215.736 80.1553 215.437 80.3525C215.142 80.5464 214.913 80.8008 214.75 81.1156C214.592 81.4272 214.512 81.7658 214.512 82.1315V82.9661C214.512 83.4558 214.598 83.8723 214.77 84.2157C214.944 84.5591 215.188 84.8215 215.499 85.0027C215.811 85.1808 216.175 85.2698 216.591 85.2698C216.862 85.2698 217.108 85.2316 217.331 85.1553C217.553 85.0758 217.746 84.9582 217.908 84.8024C218.07 84.6466 218.194 84.4542 218.28 84.2253L219.63 84.4685C219.522 84.866 219.328 85.2141 219.048 85.513C218.771 85.8087 218.423 86.0393 218.003 86.2046C217.587 86.3668 217.111 86.4478 216.577 86.4478ZM222.863 81.9502V86.3H221.437V78.9741H222.806V80.1665H222.896C223.065 79.7786 223.329 79.467 223.688 79.2317C224.05 78.9964 224.507 78.8787 225.057 78.8787C225.556 78.8787 225.993 78.9837 226.368 79.1935C226.744 79.4002 227.035 79.7086 227.241 80.1188C227.448 80.529 227.551 81.0361 227.551 81.6402V86.3H226.125V81.8119C226.125 81.2809 225.987 80.866 225.71 80.5671C225.434 80.265 225.054 80.114 224.57 80.114C224.24 80.114 223.946 80.1856 223.688 80.3286C223.434 80.4717 223.232 80.6816 223.082 80.9582C222.936 81.2317 222.863 81.5623 222.863 81.9502ZM233.018 78.9741V80.1188H229.016V78.9741H233.018ZM230.089 77.219H231.515V84.149C231.515 84.4256 231.557 84.6339 231.639 84.7738C231.722 84.9105 231.829 85.0043 231.959 85.0552C232.093 85.1029 232.237 85.1267 232.393 85.1267C232.507 85.1267 232.608 85.1188 232.693 85.1029C232.779 85.087 232.846 85.0742 232.894 85.0647L233.151 86.2428C233.069 86.2746 232.951 86.3063 232.798 86.3381C232.646 86.3731 232.455 86.3922 232.226 86.3954C231.851 86.4017 231.501 86.335 231.177 86.1951C230.852 86.0552 230.59 85.8389 230.39 85.5464C230.19 85.2539 230.089 84.8866 230.089 84.4447V77.219ZM235.001 86.3V76.5322H238.483C239.243 76.5322 239.873 76.6705 240.372 76.9471C240.871 77.2237 241.245 77.6021 241.493 78.0822C241.741 78.5592 241.865 79.0965 241.865 79.6943C241.865 80.2953 241.739 80.8358 241.488 81.3159C241.24 81.7929 240.865 82.1712 240.362 82.451C239.863 82.7277 239.235 82.866 238.478 82.866H236.084V81.6164H238.345C238.825 81.6164 239.214 81.5337 239.513 81.3684C239.812 81.1999 240.032 80.9709 240.172 80.6816C240.311 80.3922 240.381 80.0631 240.381 79.6943C240.381 79.3255 240.311 78.998 240.172 78.7118C240.032 78.4256 239.811 78.2015 239.509 78.0393C239.21 77.8771 238.815 77.7961 238.326 77.7961H236.475V86.3H235.001ZM245.679 86.4621C245.214 86.4621 244.795 86.3763 244.42 86.2046C244.044 86.0297 243.747 85.7769 243.528 85.4463C243.311 85.1156 243.203 84.7102 243.203 84.23C243.203 83.8167 243.283 83.4765 243.442 83.2094C243.601 82.9423 243.815 82.7308 244.086 82.575C244.356 82.4192 244.658 82.3016 244.992 82.2221C245.326 82.1426 245.666 82.0822 246.013 82.0409C246.451 81.99 246.807 81.9487 247.081 81.9169C247.354 81.8819 247.553 81.8262 247.677 81.7499C247.801 81.6736 247.863 81.5496 247.863 81.3779V81.3445C247.863 80.928 247.745 80.6053 247.51 80.3763C247.278 80.1474 246.931 80.0329 246.47 80.0329C245.99 80.0329 245.612 80.1394 245.335 80.3525C245.062 80.5623 244.873 80.796 244.768 81.0536L243.427 80.7483C243.586 80.3032 243.819 79.9439 244.124 79.6705C244.432 79.3938 244.787 79.1935 245.187 79.0695C245.588 78.9423 246.009 78.8787 246.451 78.8787C246.744 78.8787 247.054 78.9137 247.381 78.9837C247.712 79.0504 248.02 79.1744 248.307 79.3557C248.596 79.5369 248.833 79.796 249.017 80.1331C249.202 80.467 249.294 80.901 249.294 81.4351V86.3H247.901V85.2984H247.844C247.752 85.4828 247.613 85.6641 247.429 85.8421C247.245 86.0202 247.008 86.168 246.718 86.2857C246.429 86.4033 246.082 86.4621 245.679 86.4621ZM245.989 85.3175C246.383 85.3175 246.72 85.2396 247 85.0838C247.283 84.928 247.497 84.7245 247.644 84.4733C247.793 84.2189 247.868 83.9471 247.868 83.6577V82.7134C247.817 82.7642 247.718 82.8119 247.572 82.8564C247.429 82.8978 247.265 82.9343 247.081 82.9661C246.896 82.9948 246.717 83.0218 246.542 83.0472C246.367 83.0695 246.221 83.0886 246.103 83.1045C245.826 83.1394 245.574 83.1983 245.345 83.2809C245.119 83.3636 244.938 83.4828 244.801 83.6386C244.668 83.7913 244.601 83.9948 244.601 84.2491C244.601 84.6021 244.731 84.8692 244.992 85.0504C245.253 85.2285 245.585 85.3175 245.989 85.3175ZM251.967 89.0472C251.754 89.0472 251.56 89.0297 251.385 88.9947C251.21 88.9629 251.08 88.928 250.994 88.8898L251.337 87.7213C251.598 87.7912 251.83 87.8214 252.034 87.8119C252.237 87.8024 252.417 87.7261 252.572 87.583C252.731 87.4399 252.871 87.2062 252.992 86.8819L253.169 86.3954L250.488 78.9741H252.014L253.87 84.6593H253.946L255.801 78.9741H257.332L254.313 87.2777C254.173 87.6593 253.995 87.982 253.779 88.2459C253.563 88.513 253.305 88.7133 253.006 88.8469C252.708 88.9804 252.361 89.0472 251.967 89.0472ZM260.233 76.5322V86.3H258.807V76.5322H260.233ZM265.372 86.4478C264.685 86.4478 264.085 86.2904 263.574 85.9757C263.062 85.6609 262.664 85.2205 262.381 84.6545C262.098 84.0886 261.957 83.4272 261.957 82.6704C261.957 81.9105 262.098 81.246 262.381 80.6768C262.664 80.1077 263.062 79.6657 263.574 79.3509C264.085 79.0361 264.685 78.8787 265.372 78.8787C266.058 78.8787 266.658 79.0361 267.17 79.3509C267.682 79.6657 268.079 80.1077 268.362 80.6768C268.645 81.246 268.787 81.9105 268.787 82.6704C268.787 83.4272 268.645 84.0886 268.362 84.6545C268.079 85.2205 267.682 85.6609 267.17 85.9757C266.658 86.2904 266.058 86.4478 265.372 86.4478ZM265.376 85.2507C265.822 85.2507 266.19 85.1331 266.483 84.8978C266.775 84.6625 266.992 84.3493 267.132 83.9582C267.275 83.5671 267.346 83.1363 267.346 82.6657C267.346 82.1983 267.275 81.769 267.132 81.3779C266.992 80.9836 266.775 80.6673 266.483 80.4288C266.19 80.1903 265.822 80.0711 265.376 80.0711C264.928 80.0711 264.556 80.1903 264.26 80.4288C263.968 80.6673 263.75 80.9836 263.607 81.3779C263.467 81.769 263.397 82.1983 263.397 82.6657C263.397 83.1363 263.467 83.5671 263.607 83.9582C263.75 84.3493 263.968 84.6625 264.26 84.8978C264.556 85.1331 264.928 85.2507 265.376 85.2507ZM272.645 86.4621C272.18 86.4621 271.761 86.3763 271.385 86.2046C271.01 86.0297 270.713 85.7769 270.494 85.4463C270.277 85.1156 270.169 84.7102 270.169 84.23C270.169 83.8167 270.249 83.4765 270.408 83.2094C270.567 82.9423 270.781 82.7308 271.052 82.575C271.322 82.4192 271.624 82.3016 271.958 82.2221C272.292 82.1426 272.632 82.0822 272.978 82.0409C273.417 81.99 273.773 81.9487 274.047 81.9169C274.32 81.8819 274.519 81.8262 274.643 81.7499C274.767 81.6736 274.829 81.5496 274.829 81.3779V81.3445C274.829 80.928 274.711 80.6053 274.476 80.3763C274.244 80.1474 273.897 80.0329 273.436 80.0329C272.956 80.0329 272.578 80.1394 272.301 80.3525C272.028 80.5623 271.839 80.796 271.734 81.0536L270.393 80.7483C270.552 80.3032 270.785 79.9439 271.09 79.6705C271.398 79.3938 271.753 79.1935 272.153 79.0695C272.554 78.9423 272.975 78.8787 273.417 78.8787C273.71 78.8787 274.02 78.9137 274.347 78.9837C274.678 79.0504 274.986 79.1744 275.273 79.3557C275.562 79.5369 275.799 79.796 275.983 80.1331C276.168 80.467 276.26 80.901 276.26 81.4351V86.3H274.867V85.2984H274.81C274.718 85.4828 274.579 85.6641 274.395 85.8421C274.211 86.0202 273.974 86.168 273.684 86.2857C273.395 86.4033 273.048 86.4621 272.645 86.4621ZM272.955 85.3175C273.349 85.3175 273.686 85.2396 273.966 85.0838C274.249 84.928 274.463 84.7245 274.61 84.4733C274.759 84.2189 274.834 83.9471 274.834 83.6577V82.7134C274.783 82.7642 274.684 82.8119 274.538 82.8564C274.395 82.8978 274.231 82.9343 274.047 82.9661C273.862 82.9948 273.683 83.0218 273.508 83.0472C273.333 83.0695 273.187 83.0886 273.069 83.1045C272.792 83.1394 272.54 83.1983 272.311 83.2809C272.085 83.3636 271.904 83.4828 271.767 83.6386C271.633 83.7913 271.567 83.9948 271.567 84.2491C271.567 84.6021 271.697 84.8692 271.958 85.0504C272.219 85.2285 272.551 85.3175 272.955 85.3175ZM281.036 86.4431C280.445 86.4431 279.917 86.292 279.453 85.99C278.992 85.6847 278.629 85.2507 278.365 84.6879C278.104 84.1219 277.974 83.4431 277.974 82.6514C277.974 81.8596 278.106 81.1824 278.37 80.6196C278.637 80.0568 279.003 79.6259 279.467 79.3271C279.931 79.0282 280.457 78.8787 281.046 78.8787C281.5 78.8787 281.866 78.955 282.143 79.1077C282.422 79.2571 282.639 79.432 282.791 79.6323C282.947 79.8326 283.068 80.0091 283.154 80.1617H283.239V76.5322H284.666V86.3H283.273V85.1601H283.154C283.068 85.3159 282.944 85.494 282.782 85.6943C282.623 85.8946 282.403 86.0695 282.123 86.2189C281.844 86.3683 281.481 86.4431 281.036 86.4431ZM281.351 85.2269C281.761 85.2269 282.108 85.1188 282.391 84.9025C282.677 84.6831 282.893 84.3795 283.039 83.9916C283.189 83.6037 283.263 83.1522 283.263 82.6371C283.263 82.1283 283.19 81.6832 283.044 81.3016C282.898 80.92 282.683 80.6228 282.4 80.4097C282.117 80.1967 281.767 80.0902 281.351 80.0902C280.922 80.0902 280.564 80.2015 280.278 80.424C279.991 80.6466 279.775 80.9503 279.629 81.335C279.486 81.7197 279.414 82.1537 279.414 82.6371C279.414 83.1267 279.488 83.5671 279.634 83.9582C279.78 84.3493 279.996 84.6593 280.282 84.8882C280.572 85.114 280.928 85.2269 281.351 85.2269Z" fill="#212121"/>
<defs>
<filter id="filter0_d_138_81" x="0.761539" y="0.669253" width="295.477" height="105.208" filterUnits="userSpaceOnUse" color-interpolation-filters="sRGB">
<feFlood flood-opacity="0" result="BackgroundImageFix"/>
<feColorMatrix in="SourceAlpha" type="matrix" values="0 0 0 0 0 0 0 0 0 0 0 0 0 0 0 0 0 0 127 0" result="hardAlpha"/>
<feMorphology radius="2.23846" operator="dilate" in="SourceAlpha" result="effect1_dropShadow_138_81"/>
<feOffset/>
<feComposite in2="hardAlpha" operator="out"/>
<feColorMatrix type="matrix" values="0 0 0 0 0.345098 0 0 0 0 0.41098 0 0 0 0 0.839216 0 0 0 0.24 0"/>
<feBlend mode="normal" in2="BackgroundImageFix" result="effect1_dropShadow_138_81"/>
<feBlend mode="normal" in="SourceGraphic" in2="effect1_dropShadow_138_81" result="shape"/>
</filter>
</defs>
</svg>
