<svg width="44" height="44" viewBox="0 0 44 44" fill="none" xmlns="http://www.w3.org/2000/svg">
<path d="M42.1945 33.461C40.9777 32.2442 37.1416 29.4118 33.333 27.2187C33.2918 27.2806 33.2505 27.3425 33.2092 27.4112C37.5059 20.4884 36.6603 11.2694 30.6449 5.254C23.6327 -1.75133 12.2688 -1.75133 5.25658 5.254C-1.75563 12.2731 -1.74876 23.6301 5.25658 30.6424C11.217 36.5959 20.3122 37.4965 27.2144 33.3304C29.2012 36.7815 32.0955 40.8308 33.4636 42.1988C35.8697 44.605 39.7883 44.5981 42.1945 42.1919C44.6007 39.7789 44.6007 35.874 42.1945 33.461ZM25.9152 25.9125C21.5154 30.3055 14.3932 30.3055 9.99333 25.9057C5.60039 21.5127 5.59351 14.3905 9.99333 9.99069C14.3863 5.59774 21.5154 5.59774 25.9083 9.99069C30.3081 14.3905 30.3081 21.5196 25.9152 25.9125Z" fill="url(#paint0_linear_138_255)"/>
<defs>
<linearGradient id="paint0_linear_138_255" x1="21.9996" y1="0" x2="21.9996" y2="44" gradientUnits="userSpaceOnUse">
<stop stop-color="#6C3DD1"/>
<stop offset="1" stop-color="#D281BC"/>
</linearGradient>
</defs>
</svg>
