<?xml version="1.0" encoding="utf-8"?>
<!-- Generator: Adobe Illustrator 27.7.0, SVG Export Plug-In . SVG Version: 6.00 Build 0)  -->
<svg version="1.1" id="Layer_1" xmlns="http://www.w3.org/2000/svg" xmlns:xlink="http://www.w3.org/1999/xlink" x="0px" y="0px"
	 viewBox="0 0 198 47" style="enable-background:new 0 0 198 47;" xml:space="preserve">
<style type="text/css">
	.st0{fill:#02563D;}
</style>
<g>
	<path class="st0" d="M17.6,21.3l4.4,2.2l-3.6,14.1l-1.7,8C7.5,43,0.2,34.7,0.2,24.5c0-2,0.3-4,0.8-5.9c0.2,0.1,0.4,0.2,0.6,0.3
		L6,21.3c1.1,0.6,2.3,0.8,3.5,0.5l4.7-1C15.4,20.7,16.5,20.8,17.6,21.3L17.6,21.3z"/>
	<path class="st0" d="M15.6,15.9l7.5,3.8v0L18,17.4c-1.2-0.5-2.6-0.6-3.9-0.1l-4.4,1.6c-1.3,0.5-2.7,0.4-3.9-0.1l-4.2-1.9
		c0.2-0.6,0.5-1.3,0.8-1.9L4,15.9c1.1,0.6,2.3,0.8,3.5,0.5l4.7-1C13.4,15.2,14.5,15.4,15.6,15.9L15.6,15.9z"/>
	<path class="st0" d="M3.3,13.1c0.1-0.2,0.3-0.5,0.4-0.7C3.6,12.7,3.5,12.9,3.3,13.1L3.3,13.1z"/>
	<path class="st0" d="M46.2,24.1v0.1c0,1.3-0.1,2.6-0.4,3.9c0,0.1,0,0.3-0.1,0.4c0,0.1,0,0.2-0.1,0.3c0,0.1-0.1,0.3-0.1,0.4
		c-0.7,3.1-2.2,6-4.1,8.4H28.1L27,28.2h12.4l1.4-5.1l-17.8-8l-7.1-3.2c-1.2-0.6-2.6-0.6-3.9-0.1l-4.4,1.6c-1.3,0.5-2.7,0.4-3.9-0.1
		l-0.4-0.2c0.1-0.2,0.3-0.5,0.4-0.7C7.7,5.8,15,1.3,23.4,1.3c2,0,4,0.3,5.8,0.8c0,0,0,0,0,0c9.4,2.5,16.4,10.8,16.9,20.9
		C46.2,23.3,46.2,23.7,46.2,24.1L46.2,24.1z"/>
	<path class="st0" d="M58.8,37.7V9.3h7.7v11.1h10.2V9.3h7.7v28.4h-7.7V26.6H66.5v11.1H58.8z"/>
	<path class="st0" d="M87.3,37.7V9.3h12.2c2.1,0,3.9,0.4,5.5,1.1c1.6,0.8,2.8,1.9,3.7,3.3c0.9,1.4,1.3,3.2,1.3,5.2
		c0,2-0.5,3.7-1.4,5.1c-0.9,1.4-2.2,2.4-3.8,3.2c-1.6,0.7-3.5,1.1-5.7,1.1H92v-6h5.8c0.9,0,1.7-0.1,2.3-0.3c0.6-0.2,1.1-0.6,1.5-1.1
		c0.4-0.5,0.5-1.2,0.5-2c0-0.8-0.2-1.5-0.5-2c-0.3-0.5-0.8-0.9-1.5-1.1c-0.6-0.2-1.4-0.4-2.3-0.4H95v22.2H87.3z M103.9,24.7l7.1,13
		h-8.4l-6.9-13H103.9z"/>
	<path class="st0" d="M119.2,35.8c-2.2-1.3-3.8-3-5.1-5.2c-1.3-2.2-1.8-4.6-1.8-7.1s0.6-5,1.9-7.2c1.3-2.2,2.9-3.9,5.1-5.1
		c2.2-1.3,4.6-1.9,7.2-1.9c2.6,0,5,0.6,7.2,1.9c2.2,1.3,3.9,3,5.1,5.1c1.3,2.2,1.9,4.6,1.9,7.2c0,2.6-0.6,5-1.9,7.2
		c-1.3,2.2-2.9,3.9-5.1,5.1c-2.2,1.3-4.6,1.9-7.2,1.9C123.7,37.7,121.3,37.1,119.2,35.8z M132.3,33.5c1.7-1,3.1-2.4,4.1-4.2
		c1-1.7,1.5-3.7,1.5-5.8s-0.5-4-1.5-5.8c-1-1.7-2.4-3.1-4.1-4.2c-1.8-1-3.7-1.6-5.8-1.6c-2.2,0-4.1,0.5-5.8,1.5s-3.1,2.4-4.1,4.2
		c-1,1.8-1.5,3.7-1.5,5.8c0,2.2,0.5,4.1,1.5,5.8c1,1.8,2.4,3.1,4.1,4.2c1.7,1,3.7,1.5,5.9,1.5C128.6,35,130.6,34.5,132.3,33.5z"/>
	<path class="st0" d="M143.4,37.7V9.3h3.3v4.6c2.1-3,5.2-4.6,9.5-4.6c2.4,0,4.4,0.5,6.2,1.4c1.6,0.9,2.8,2.1,3.6,3.6
		c0.8,1.6,1.3,3.4,1.3,5.5v17.9H164V19.8c0-2.3-0.7-4-2.2-5.3c-1.5-1.3-3.4-2-5.9-2c-3,0-5.2,0.8-6.8,2.5c-1.6,1.7-2.4,4-2.4,7.1
		v15.6H143.4z"/>
	<path class="st0" d="M177.2,35.9c-2.1-1.3-3.8-3-5-5.2s-1.8-4.6-1.8-7.2s0.6-5,1.8-7.1s2.8-3.9,5-5.2c2.1-1.3,4.4-1.9,6.9-1.9
		c2.5,0,4.8,0.7,6.8,1.9s3.7,3,4.9,5.2s1.8,4.5,1.8,7.1c0,0.7,0,1.1,0,1.4h-23.8c0.2,1.8,0.8,3.5,1.7,4.9c1,1.5,2.2,2.7,3.7,3.5
		c1.4,0.9,3.1,1.3,4.9,1.3c1.7,0,3.3-0.4,4.8-1.2c1.4-0.8,2.7-1.9,3.6-3.3h3.8c-1.2,2.4-2.8,4.2-5,5.6c-2.2,1.4-4.6,2.1-7.2,2.1
		C181.6,37.8,179.3,37.2,177.2,35.9z M194.4,21.9c-0.3-1.7-0.9-3.3-1.8-4.8s-2.2-2.6-3.7-3.4c-1.4-0.8-3-1.2-4.8-1.2
		s-3.4,0.4-4.8,1.2c-1.4,0.8-2.7,1.9-3.6,3.4c-1,1.4-1.6,3-1.8,4.8H194.4z"/>
	<path class="st0" d="M142.1,9.3h1.9v3.3h-1.9V9.3z"/>
</g>
</svg>
