<svg width="66" height="50" viewBox="0 0 66 50" fill="none" xmlns="http://www.w3.org/2000/svg">
<path d="M54.5665 26.1073C54.8305 24.7461 54.9727 23.3239 54.9727 21.8814C54.993 9.79277 45.1391 0 32.9897 0C20.8402 0 10.9864 9.79277 10.9864 21.8814C10.9864 23.3239 11.1287 24.7461 11.3928 26.1073C8.67031 27.7733 6.8418 30.7802 6.8418 34.1934C6.8418 39.4352 11.1084 43.6812 16.3908 43.6812C18.8491 43.6812 21.084 42.7672 22.7703 41.2434C25.8178 42.8281 29.292 43.7422 32.9694 43.7422C36.6468 43.7422 40.1208 42.8281 43.1684 41.2434C44.8548 42.7469 47.0895 43.6812 49.5481 43.6812C54.8102 43.6812 59.0969 39.4352 59.0969 34.1934C59.0969 30.7802 57.2684 27.7733 54.5462 26.1073H54.5665Z" fill="url(#paint0_linear_138_434)"/>
<path fill-rule="evenodd" clip-rule="evenodd" d="M65.4968 34.2744C65.4968 37.5251 64.5011 40.5728 62.8147 43.0716C61.1284 45.5911 58.7312 47.5619 55.9069 48.7603C54.0175 49.5529 51.9452 49.9997 49.7917 49.9997C46.5409 49.9997 43.4933 49.004 40.9944 47.3177C40.5069 46.9927 40.0394 46.6271 39.5925 46.2411L38.3735 45.022C38.5942 45.1638 38.8193 45.2994 39.0487 45.4279C38.8128 45.2908 38.581 45.1482 38.3532 45.0017L37.5812 44.2298L21.7746 28.2605C21.0838 27.6307 20.2712 27.1025 19.3975 26.7165C18.4223 26.3101 17.3455 26.0663 16.2078 26.0663C14.5012 26.0663 12.9367 26.5742 11.6364 27.4682C10.3158 28.3621 9.27967 29.6015 8.67018 31.0846C8.50764 31.4706 8.37619 31.7996 8.27459 32.2262C8.28752 32.0287 8.30619 31.8323 8.33045 31.6373C8.28178 31.8641 8.2392 32.0931 8.20287 32.3242C8.04033 32.954 7.95904 33.6042 7.95904 34.2746C7.95904 34.9044 8.02002 35.514 8.16221 36.0828L8.16334 36.091L8.16522 36.0825C8.38869 37.0984 8.83272 38.0126 9.40158 38.8456C10.2955 40.1661 11.5552 41.2025 13.018 41.8119C13.9932 42.2181 15.07 42.4619 16.2078 42.4619C17.9144 42.4619 19.4788 41.954 20.7791 41.0603C20.7994 41.04 20.8197 41.0247 20.84 41.0095C20.8604 40.9943 20.8807 40.979 20.901 40.9587C22.8514 39.5771 25.513 39.8005 27.1992 41.5072L29.0074 43.3357L29.0278 43.356C28.6214 43.9451 28.1745 44.4939 27.6869 45.0017C26.2037 46.6068 24.3751 47.8869 22.3231 48.7607C20.4337 49.5529 18.3613 49.9997 16.2078 49.9997C12.957 49.9997 9.90947 49.0044 7.41049 47.3181C4.89119 45.6318 2.92045 43.2345 1.72176 40.4103C0.929396 38.5209 0.482422 36.4485 0.482422 34.2949C0.482422 31.0442 1.47795 27.9967 3.16426 25.4977C4.85057 22.9987 7.24795 21.0076 10.072 19.809C11.9615 19.0166 14.0338 18.5696 16.1874 18.5696H16.7969C19.8039 18.6915 22.6482 19.6667 24.9847 21.2515C25.995 21.9448 26.9281 22.7348 27.7462 23.6401C27.8012 23.6767 27.8559 23.7134 27.9103 23.7502L28.1135 23.9533L44.5905 40.5931C45.1999 41.1009 45.8909 41.5275 46.6425 41.8322C47.6179 42.2384 48.6944 42.4826 49.8323 42.4826C51.539 42.4826 53.1034 41.9744 54.4038 41.0806C55.7241 40.1865 56.7605 38.9269 57.3698 37.4641C57.6948 36.6921 57.8776 35.8591 57.939 34.9651C57.8909 35.8984 57.7499 36.8245 57.5233 37.7248C57.7644 36.8463 57.9136 35.9295 57.9589 34.9855L57.9636 34.9294C57.9823 34.7072 57.9995 34.501 57.9995 34.2947C57.9995 34.0306 57.9995 33.7462 57.9589 33.4821C57.8894 32.3967 57.6835 31.3488 57.3585 30.3551C57.2312 30.1256 57.0925 29.9015 56.9429 29.6829C56.0319 28.3623 54.7487 27.3261 53.2589 26.7166C52.2655 26.3103 51.1683 26.0665 50.0093 26.0665C48.271 26.0665 46.6772 26.5744 45.3526 27.4683C45.3526 27.4683 45.3319 27.4683 45.3112 27.4887C43.3038 28.8295 40.6136 28.6264 38.8956 26.9401L37.033 25.0912H37.0122C37.3227 24.6443 37.6745 24.2176 38.0264 23.8316L38.0294 23.8301C39.5733 22.0835 41.4827 20.7025 43.6761 19.7681C45.2202 19.118 46.9065 18.6913 48.6538 18.5694C48.7757 18.5694 48.8976 18.5593 49.0194 18.5491C49.1413 18.539 49.2632 18.5288 49.3855 18.5288H49.7917C53.0425 18.5288 56.0897 19.5243 58.589 21.2106C61.1081 22.8969 63.0788 25.2944 64.2776 28.1184C65.0698 30.0079 65.5171 32.0802 65.5171 34.2338L65.4968 34.2744ZM45.0046 47.0513C45.0897 47.0529 45.1753 47.0536 45.2608 47.0536C45.3034 47.0536 45.3456 47.0536 45.3878 47.0533C45.339 47.047 45.2897 47.0404 45.2405 47.0333C45.1616 47.0404 45.0831 47.0462 45.0046 47.0513ZM38.1298 23.7706C38.1271 23.772 38.1244 23.7733 38.1218 23.7746C38.1194 23.776 38.1169 23.7773 38.1146 23.7786C38.1194 23.776 38.1244 23.7733 38.1298 23.7706Z" fill="url(#paint1_linear_138_434)"/>
<defs>
<linearGradient id="paint0_linear_138_434" x1="32.9998" y1="0" x2="32.9998" y2="78.1391" gradientUnits="userSpaceOnUse">
<stop stop-color="#6D5BA3"/>
<stop offset="0.713153" stop-color="#957BE1" stop-opacity="0"/>
</linearGradient>
<linearGradient id="paint1_linear_138_434" x1="0.266796" y1="33.9837" x2="65.5011" y2="33.9837" gradientUnits="userSpaceOnUse">
<stop stop-color="#9B75EC"/>
<stop offset="1" stop-color="#E2A3AC"/>
</linearGradient>
</defs>
</svg>
