<svg width="23" height="22" viewBox="0 0 23 22" fill="none" xmlns="http://www.w3.org/2000/svg">
<path d="M17 0H6C2.96243 0 0.5 2.46243 0.5 5.5V16.5C0.5 19.5376 2.96243 22 6 22H17C20.0376 22 22.5 19.5376 22.5 16.5V5.5C22.5 2.46243 20.0376 0 17 0Z" fill="white"/>
<path d="M15.9009 10.3064C16.0366 11.2218 15.8802 12.1568 15.454 12.9783C15.0277 13.7998 14.3533 14.4659 13.5266 14.882C12.7 15.2981 11.7631 15.4429 10.8494 15.2959C9.93569 15.1488 9.09159 14.7174 8.43717 14.063C7.78276 13.4086 7.35136 12.5645 7.20432 11.6508C7.05729 10.7371 7.20212 9.80024 7.61821 8.97357C8.0343 8.14689 8.70045 7.47247 9.52193 7.04622C10.3434 6.61997 11.2784 6.4636 12.1939 6.59936C13.1277 6.73783 13.9922 7.17296 14.6597 7.84049C15.3272 8.50802 15.7624 9.37254 15.9009 10.3064Z" fill="white" stroke="#1A1A1A" stroke-width="2" stroke-linecap="round" stroke-linejoin="round"/>
<path d="M17.5498 4.94922H17.5619" stroke="#1A1A1A" stroke-width="2" stroke-linecap="round" stroke-linejoin="round"/>
</svg>
