<svg width="23" height="22" viewBox="0 0 23 22" fill="none" xmlns="http://www.w3.org/2000/svg">
<path d="M15.8998 7.1499C17.6502 7.1499 19.329 7.84526 20.5667 9.083C21.8045 10.3207 22.4998 11.9995 22.4998 13.7499V21.4499H18.0998V13.7499C18.0998 13.1664 17.868 12.6069 17.4554 12.1943C17.0429 11.7817 16.4833 11.5499 15.8998 11.5499C15.3163 11.5499 14.7568 11.7817 14.3442 12.1943C13.9316 12.6069 13.6998 13.1664 13.6998 13.7499V21.4499H9.2998V13.7499C9.2998 11.9995 9.99516 10.3207 11.2329 9.083C12.4706 7.84526 14.1494 7.1499 15.8998 7.1499Z" fill="white"/>
<path d="M4.9 8.25H0.5V21.45H4.9V8.25Z" fill="white"/>
<path d="M2.7 4.94981C3.91503 4.94981 4.9 3.96483 4.9 2.74981C4.9 1.53478 3.91503 0.549805 2.7 0.549805C1.48497 0.549805 0.5 1.53478 0.5 2.74981C0.5 3.96483 1.48497 4.94981 2.7 4.94981Z" fill="white"/>
</svg>
