<svg width="44" height="44" viewBox="0 0 44 44" fill="none" xmlns="http://www.w3.org/2000/svg">
<g id="Frame 1000005602">
<g id="&#240;&#159;&#166;&#134; icon &#34;Location&#34;">
<path id="Vector" d="M22 1C31.9411 1 40 9.05887 40 19C40 26.4505 34.3208 34.2594 23.2 42.6C22.4889 43.1333 21.5111 43.1333 20.8 42.6C9.67922 34.2594 4 26.4505 4 19C4 9.05887 12.0589 1 22 1ZM22 13C18.6863 13 16 15.6863 16 19C16 22.3137 18.6863 25 22 25C25.3137 25 28 22.3137 28 19C28 15.6863 25.3137 13 22 13Z" fill="url(#paint0_linear_193_50980)"/>
</g>
</g>
<defs>
<linearGradient id="paint0_linear_193_50980" x1="33.8636" y1="4.68182" x2="22" y2="43" gradientUnits="userSpaceOnUse">
<stop stop-color="#6C3DD1"/>
<stop offset="1" stop-color="#D281BC"/>
</linearGradient>
</defs>
</svg>
