<svg width="196" height="114" viewBox="0 0 196 114" fill="none" xmlns="http://www.w3.org/2000/svg">
<rect width="196" height="114" rx="10" fill="white"/>
<g clip-path="url(#clip0_739_570)">
<path d="M21.4466 39.6367C19.6848 37.5651 18.1676 35.4612 17.8577 35.0243C17.8251 34.9919 17.7761 34.9919 17.7435 35.0243C17.4335 35.4612 15.9164 37.5651 14.1546 39.6367C-0.967641 58.7498 16.5363 71.6485 16.5363 71.6485L16.6831 71.7456C16.8136 73.7361 17.1399 76.6007 17.1399 76.6007H17.7924H18.445C18.445 76.6007 18.7712 73.7523 18.9017 71.7456L19.0485 71.6323C19.0648 71.6485 36.5689 58.7498 21.4466 39.6367ZM17.7924 71.3571C17.7924 71.3571 17.0094 70.6936 16.7973 70.3538V70.3213L17.7435 49.5089C17.7435 49.4441 17.8414 49.4441 17.8414 49.5089L18.7875 70.3213V70.3538C18.5755 70.6936 17.7924 71.3571 17.7924 71.3571Z" fill="#001E2B"/>
<path d="M50.5501 67.1101L43.256 49.4552L43.2397 49.4065H37.5646V50.5932H38.4805C38.7585 50.5932 39.0201 50.707 39.2165 50.9021C39.4126 51.0972 39.5108 51.3574 39.5108 51.6337L39.3473 69.4024C39.3473 69.955 38.8895 70.4102 38.3333 70.4265L37.4011 70.4427V71.6132H42.929V70.4427L42.3565 70.4265C41.8005 70.4102 41.3425 69.955 41.3425 69.4024V52.6578L49.2909 71.6132C49.4053 71.8895 49.6669 72.0684 49.9614 72.0684C50.2558 72.0684 50.5174 71.8895 50.6319 71.6132L58.4004 53.0805L58.5149 69.4024C58.5149 69.9713 58.0569 70.4265 57.4845 70.4427H56.8957V71.6132H63.3721V70.4427H62.4889C61.9329 70.4427 61.4749 69.9713 61.4586 69.4185L61.4096 51.6499C61.4096 51.0809 61.8674 50.6257 62.4236 50.6095L63.3721 50.5932V49.4065H57.8442L50.5501 67.1101Z" fill="#001E2B"/>
<path d="M101.409 70.1334C101.228 69.9544 101.13 69.7101 101.13 69.417V60.6883C101.13 59.0273 100.638 57.7244 99.6541 56.7963C98.6868 55.8679 97.3422 55.3958 95.6698 55.3958C93.3249 55.3958 91.4721 56.3403 90.1767 58.1968C90.1603 58.2293 90.1112 58.2456 90.062 58.2456C90.0127 58.2456 89.98 58.2129 89.98 58.1642L89.3732 55.8354H88.3566L85.7495 57.3173V58.1315H86.4218C86.7333 58.1315 86.9956 58.2129 87.1761 58.3759C87.3564 58.5388 87.4548 58.7831 87.4548 59.1249V69.4006C87.4548 69.6938 87.3564 69.938 87.1761 70.1172C86.9956 70.2963 86.7498 70.394 86.4546 70.394H85.7987V71.5828H91.7999V70.394H91.1441C90.849 70.394 90.603 70.2963 90.4226 70.1172C90.2423 69.938 90.1438 69.6938 90.1438 69.4006V62.5936C90.1438 61.7306 90.3407 60.8675 90.7015 60.0206C91.0785 59.1902 91.6359 58.4899 92.3739 57.9525C93.1117 57.4151 93.9972 57.1545 95.0138 57.1545C96.1616 57.1545 97.0307 57.5127 97.5717 58.2293C98.1128 58.9459 98.3917 59.8741 98.3917 60.9814V69.3844C98.3917 69.6774 98.2932 69.9217 98.1128 70.1009C97.9325 70.2801 97.6865 70.3777 97.3914 70.3777H96.7356V71.5665H102.737V70.3777H102.081C101.835 70.4104 101.605 70.3126 101.409 70.1334Z" fill="#001E2B"/>
<path d="M156.238 50.7358C154.579 49.8604 152.725 49.4065 150.725 49.4065H142.918V50.5899H143.683C143.975 50.5899 144.236 50.7034 144.496 50.9627C144.74 51.2058 144.87 51.4815 144.87 51.7732V69.216C144.87 69.5077 144.74 69.7834 144.496 70.0265C144.252 70.2697 143.975 70.3993 143.683 70.3993H142.918V71.5828H150.725C152.725 71.5828 154.579 71.1289 156.238 70.2535C157.897 69.3781 159.247 68.0812 160.223 66.4278C161.198 64.7743 161.702 62.7804 161.702 60.5108C161.702 58.2414 161.198 56.2637 160.223 54.594C159.23 52.9081 157.897 51.6274 156.238 50.7358ZM158.564 60.4784C158.564 62.5535 158.19 64.3041 157.458 65.7145C156.726 67.1248 155.75 68.1785 154.546 68.8594C153.343 69.5403 152.009 69.8807 150.578 69.8807H149.001C148.708 69.8807 148.448 69.7672 148.188 69.5077C147.944 69.2646 147.814 68.9891 147.814 68.6973V52.2434C147.814 51.9516 147.927 51.6923 148.188 51.4328C148.432 51.1897 148.708 51.06 149.001 51.06H150.578C152.009 51.06 153.343 51.4004 154.546 52.0812C155.75 52.7621 156.726 53.8158 157.458 55.2261C158.19 56.6526 158.564 58.4196 158.564 60.4784Z" fill="#001E2B"/>
<path d="M180.155 61.6619C179.433 60.835 178.04 60.138 176.401 59.7651C178.664 58.6465 179.827 57.0741 179.827 55.0478C179.827 53.9455 179.533 52.9566 178.941 52.1136C178.352 51.2708 177.515 50.5899 176.45 50.1197C175.384 49.6496 174.137 49.4065 172.728 49.4065H163.891V50.5899H164.596C164.891 50.5899 165.154 50.7034 165.416 50.9627C165.662 51.2058 165.793 51.4815 165.793 51.7732V69.216C165.793 69.5077 165.662 69.7834 165.416 70.0265C165.17 70.2697 164.891 70.3993 164.596 70.3993H163.826V71.5828H173.417C174.876 71.5828 176.236 71.3396 177.466 70.8532C178.696 70.3669 179.68 69.6537 180.385 68.7134C181.105 67.7733 181.466 66.6222 181.466 65.293C181.45 63.8664 181.024 62.6506 180.155 61.6619ZM169.154 69.5239C168.908 69.2808 168.777 69.0053 168.777 68.7134V60.8836H173.335C174.941 60.8836 176.171 61.2889 177.024 62.0994C177.876 62.9101 178.303 63.9637 178.303 65.2606C178.303 66.0387 178.105 66.8006 177.746 67.4976C177.368 68.211 176.81 68.7783 176.057 69.216C175.318 69.6537 174.4 69.8807 173.335 69.8807H169.974C169.679 69.8807 169.416 69.7672 169.154 69.5239ZM168.793 59.2139V52.2596C168.793 51.9678 168.908 51.7085 169.17 51.449C169.416 51.2058 169.695 51.0762 169.99 51.0762H172.154C173.711 51.0762 174.859 51.4653 175.581 52.2109C176.302 52.9728 176.663 53.9455 176.663 55.1451C176.663 56.3771 176.318 57.366 175.647 58.1116C174.974 58.8411 173.958 59.2139 172.613 59.2139H168.793Z" fill="#001E2B"/>
<path d="M78.5624 56.4298C77.3096 55.7512 75.9105 55.3958 74.3974 55.3958C72.8844 55.3958 71.4689 55.735 70.2325 56.4298C68.9796 57.1082 67.9872 58.0936 67.2551 59.3376C66.523 60.5816 66.1488 62.0357 66.1488 63.6511C66.1488 65.2666 66.523 66.7207 67.2551 67.9647C67.9872 69.2086 68.9796 70.1941 70.2325 70.8727C71.4853 71.5511 72.8844 71.9065 74.3974 71.9065C75.9105 71.9065 77.326 71.5673 78.5624 70.8727C79.8152 70.1941 80.8077 69.2086 81.5398 67.9647C82.2719 66.7207 82.6461 65.2666 82.6461 63.6511C82.6461 62.0357 82.2719 60.5816 81.5398 59.3376C80.8077 58.0936 79.8152 57.1082 78.5624 56.4298ZM79.7664 63.6511C79.7664 65.6383 79.2784 67.2537 78.3021 68.4169C77.3423 69.5801 76.0245 70.1779 74.3974 70.1779C72.7706 70.1779 71.4526 69.5801 70.4928 68.4169C69.5165 67.2537 69.0285 65.6383 69.0285 63.6511C69.0285 61.664 69.5165 60.0486 70.4928 58.8854C71.4526 57.7222 72.7706 57.1244 74.3974 57.1244C76.0245 57.1244 77.3423 57.7222 78.3021 58.8854C79.2784 60.0486 79.7664 61.664 79.7664 63.6511Z" fill="#001E2B"/>
<path d="M136.221 56.4298C134.968 55.7512 133.569 55.3958 132.056 55.3958C130.543 55.3958 129.128 55.735 127.891 56.4298C126.638 57.1082 125.646 58.0936 124.914 59.3376C124.182 60.5816 123.808 62.0357 123.808 63.6511C123.808 65.2666 124.182 66.7207 124.914 67.9647C125.646 69.2086 126.638 70.1941 127.891 70.8727C129.144 71.5511 130.543 71.9065 132.056 71.9065C133.569 71.9065 134.985 71.5673 136.221 70.8727C137.474 70.1941 138.467 69.2086 139.199 67.9647C139.931 66.7207 140.305 65.2666 140.305 63.6511C140.305 62.0357 139.931 60.5816 139.199 59.3376C138.467 58.0936 137.458 57.1082 136.221 56.4298ZM137.425 63.6511C137.425 65.6383 136.937 67.2537 135.961 68.4169C135.001 69.5801 133.683 70.1779 132.056 70.1779C130.429 70.1779 129.111 69.5801 128.152 68.4169C127.175 67.2537 126.687 65.6383 126.687 63.6511C126.687 61.6478 127.175 60.0486 128.152 58.8854C129.111 57.7222 130.429 57.1244 132.056 57.1244C133.683 57.1244 135.001 57.7222 135.961 58.8854C136.921 60.0486 137.425 61.664 137.425 63.6511Z" fill="#001E2B"/>
<path d="M112.968 55.3958C111.658 55.3958 110.462 55.6716 109.38 56.2234C108.299 56.7752 107.447 57.5219 106.84 58.4794C106.234 59.4207 105.923 60.4757 105.923 61.5956C105.923 62.6017 106.152 63.5268 106.627 64.3546C107.086 65.1499 107.709 65.8152 108.495 66.367L106.152 69.5157C105.857 69.9052 105.824 70.4245 106.037 70.8465C106.267 71.2846 106.693 71.5444 107.184 71.5444H107.856C107.201 71.9826 106.676 72.5019 106.316 73.1186C105.89 73.8165 105.677 74.5468 105.677 75.2934C105.677 76.6892 106.3 77.8415 107.528 78.7017C108.741 79.5619 110.445 80.0001 112.591 80.0001C114.083 80.0001 115.508 79.7566 116.803 79.2859C118.113 78.8153 119.178 78.1174 119.965 77.2086C120.768 76.2997 121.177 75.1961 121.177 73.9301C121.177 72.5993 120.686 71.6579 119.539 70.7492C118.556 69.9863 117.016 69.5806 115.098 69.5806H108.544C108.528 69.5806 108.512 69.5643 108.512 69.5643C108.512 69.5643 108.495 69.5319 108.512 69.5157L110.216 67.2435C110.675 67.4545 111.101 67.5843 111.477 67.6654C111.871 67.7466 112.313 67.779 112.804 67.779C114.181 67.779 115.426 67.5032 116.508 66.9514C117.589 66.3995 118.457 65.653 119.08 64.6954C119.703 63.7541 120.014 62.6992 120.014 61.5794C120.014 60.3783 119.424 58.1872 117.818 57.0674C117.818 57.0512 117.835 57.0512 117.835 57.0512L121.358 57.4407V55.8339H115.721C114.836 55.5581 113.919 55.3958 112.968 55.3958ZM114.935 65.5556C114.312 65.8801 113.64 66.0586 112.968 66.0586C111.871 66.0586 110.904 65.6692 110.085 64.9065C109.265 64.1436 108.856 63.0237 108.856 61.5956C108.856 60.1674 109.265 59.0474 110.085 58.2847C110.904 57.5219 111.871 57.1323 112.968 57.1323C113.657 57.1323 114.312 57.2947 114.935 57.6354C115.557 57.9601 116.065 58.4632 116.475 59.1286C116.868 59.7941 117.081 60.6217 117.081 61.5956C117.081 62.5856 116.884 63.4132 116.475 64.0625C116.082 64.7279 115.557 65.231 114.935 65.5556ZM110.494 71.5281H114.935C116.164 71.5281 116.95 71.7715 117.474 72.291C117.999 72.8103 118.261 73.5081 118.261 74.3197C118.261 75.5044 117.786 76.4783 116.835 77.2086C115.885 77.939 114.607 78.3122 113.034 78.3122C111.658 78.3122 110.511 78.0039 109.675 77.4195C108.839 76.8353 108.413 75.9426 108.413 74.8066C108.413 74.0924 108.61 73.427 109.003 72.8428C109.396 72.2584 109.872 71.8365 110.494 71.5281Z" fill="#001E2B"/>
<path d="M184.79 71.3118C184.467 71.1365 184.224 70.8816 184.029 70.5789C183.851 70.2603 183.753 69.9257 183.753 69.5593C183.753 69.1928 183.851 68.8423 184.029 68.5396C184.207 68.2209 184.467 67.982 184.79 67.8067C185.115 67.6316 185.472 67.5359 185.877 67.5359C186.282 67.5359 186.638 67.6316 186.963 67.8067C187.286 67.982 187.53 68.237 187.724 68.5396C187.902 68.8582 188 69.1928 188 69.5593C188 69.9257 187.902 70.2762 187.724 70.5789C187.546 70.8976 187.286 71.1365 186.963 71.3118C186.638 71.487 186.282 71.5827 185.877 71.5827C185.488 71.5827 185.115 71.503 184.79 71.3118ZM186.785 71.0888C187.059 70.9454 187.255 70.7223 187.417 70.4674C187.562 70.1966 187.644 69.8939 187.644 69.5593C187.644 69.2247 187.562 68.922 187.417 68.6512C187.27 68.3804 187.059 68.1732 186.785 68.0298C186.509 67.8863 186.216 67.8067 185.877 67.8067C185.537 67.8067 185.244 67.8863 184.968 68.0298C184.694 68.1732 184.498 68.3962 184.336 68.6512C184.191 68.922 184.109 69.2247 184.109 69.5593C184.109 69.8939 184.191 70.1966 184.336 70.4674C184.483 70.7382 184.694 70.9454 184.968 71.0888C185.244 71.2322 185.537 71.3118 185.877 71.3118C186.216 71.3118 186.525 71.2322 186.785 71.0888ZM185.001 70.5311V70.3877L185.034 70.3719H185.132C185.163 70.3719 185.195 70.3558 185.212 70.34C185.244 70.3081 185.244 70.2922 185.244 70.2603V68.7786C185.244 68.7467 185.228 68.715 185.212 68.6989C185.179 68.667 185.163 68.667 185.132 68.667H185.034L185.001 68.6512V68.5078L185.034 68.4919H185.877C186.12 68.4919 186.298 68.5396 186.443 68.6512C186.59 68.7627 186.654 68.9061 186.654 69.0973C186.654 69.2407 186.607 69.384 186.492 69.4796C186.38 69.5912 186.249 69.6549 186.087 69.6708L186.282 69.7346L186.654 70.3239C186.687 70.3719 186.719 70.3877 186.768 70.3877H186.865L186.881 70.4037V70.547L186.865 70.563H186.363L186.331 70.547L185.811 69.6867H185.682V70.2603C185.682 70.2922 185.699 70.3239 185.715 70.34C185.748 70.3719 185.764 70.3719 185.795 70.3719H185.893L185.926 70.3877V70.5311L185.893 70.547H185.034L185.001 70.5311ZM185.828 69.4796C185.958 69.4796 186.071 69.4477 186.136 69.3681C186.2 69.3043 186.249 69.1928 186.249 69.0654C186.249 68.9378 186.216 68.8423 186.153 68.7627C186.087 68.6831 185.989 68.6512 185.877 68.6512H185.811C185.779 68.6512 185.748 68.667 185.731 68.6831C185.699 68.7148 185.699 68.7308 185.699 68.7627V69.4796H185.828Z" fill="#001E2B"/>
</g>
<defs>
<clipPath id="clip0_739_570">
<rect width="180" height="45" fill="white" transform="translate(8 35)"/>
</clipPath>
</defs>
</svg>
