<svg width="196" height="114" viewBox="0 0 196 114" fill="none" xmlns="http://www.w3.org/2000/svg">
<rect width="196" height="114" rx="10" fill="white"/>
<path d="M183.338 26.5371H13.5358V87.0577H183.338V26.5371Z" fill="white"/>
<path d="M12 25V88.5948H184.874V25H12ZM183.338 87.0577H13.5358V26.5371H183.338V87.0577ZM88.0233 82.3569H87.2554V31.2379H88.0233V82.3569ZM101.487 53.3955H99.9108V43.7971H101.487V53.3955ZM108.391 49.2682C108.391 48.6923 108.268 48.2511 108.022 47.9445C107.775 47.6387 107.4 47.4854 106.898 47.4854H106.802C106.509 47.4854 106.231 47.5584 105.966 47.7049C105.701 47.8515 105.487 48.0747 105.322 48.3768C105.158 48.6782 105.076 49.0621 105.076 49.5286V53.3955H103.568V46.3745H104.898V47.4304C105.117 47.0464 105.416 46.7429 105.795 46.5189C106.174 46.2949 106.624 46.1826 107.144 46.1826H107.282C108.077 46.1826 108.711 46.4296 109.186 46.9229C109.661 47.417 109.899 48.1298 109.899 49.0621V53.3956H108.391V49.2682ZM112.18 52.6753C111.582 52.077 111.282 51.2199 111.282 50.1045V49.6521C111.282 48.9207 111.421 48.2972 111.7 47.7801C111.979 47.2637 112.369 46.8686 112.872 46.594C113.374 46.3202 113.954 46.1826 114.612 46.1826H114.749C115.397 46.1826 115.947 46.3381 116.4 46.6491C116.852 46.9601 117.178 47.3716 117.379 47.8828L116.174 48.4177C116.037 48.135 115.851 47.908 115.619 47.7391C115.386 47.5702 115.096 47.4854 114.749 47.4854H114.625C114.086 47.4854 113.646 47.664 113.304 48.0204C112.961 48.3768 112.79 48.9118 112.79 49.6246V50.1321C112.79 50.8724 112.956 51.4163 113.29 51.7638C113.623 52.1113 114.068 52.2846 114.625 52.2846H114.749C115.114 52.2846 115.42 52.205 115.667 52.0451C115.913 51.8851 116.105 51.6678 116.242 51.3933L117.421 52.0108C117.219 52.4677 116.886 52.8427 116.42 53.1351C115.955 53.4275 115.397 53.5741 114.749 53.5741H114.612C113.588 53.5741 112.778 53.2743 112.18 52.6753ZM121.64 53.5741H121.846C122.495 53.5741 123.056 53.4528 123.531 53.2103C124.006 52.9684 124.367 52.6366 124.613 52.2162L123.518 51.5034C123.353 51.7869 123.136 51.9989 122.866 52.141C122.597 52.2824 122.257 52.3531 121.846 52.3531H121.64C121.101 52.3531 120.679 52.1842 120.373 51.8464C120.067 51.5078 119.901 50.9959 119.873 50.3099H124.846V49.4736C124.846 48.4683 124.57 47.6684 124.017 47.074C123.465 46.4802 122.714 46.1826 121.764 46.1826H121.64C120.645 46.1826 119.855 46.4914 119.27 47.1082C118.685 47.7258 118.393 48.5777 118.393 49.6655V50.1179C118.393 51.2244 118.679 52.077 119.25 52.6753C119.821 53.2743 120.618 53.5741 121.64 53.5741ZM120.428 47.8828C120.734 47.5725 121.138 47.417 121.64 47.417H121.75C122.261 47.417 122.661 47.5658 122.949 47.8627C123.237 48.1595 123.381 48.5918 123.381 49.1581V49.2541H119.887C119.942 48.6506 120.122 48.1938 120.428 47.8828ZM129.984 53.5741C130.559 53.5741 131.071 53.4409 131.518 53.176C131.966 52.9112 132.32 52.5205 132.58 52.0034C132.84 51.487 132.97 50.859 132.97 50.1179V49.6655C132.97 48.9163 132.84 48.2831 132.58 47.7667C132.32 47.2503 131.966 46.8567 131.518 46.5873C131.071 46.318 130.559 46.1826 129.984 46.1826H129.901C129.362 46.1826 128.899 46.2905 128.511 46.5048C128.122 46.7198 127.819 47.0189 127.6 47.4028V46.3745H126.271V56.1382H127.778V52.5726C128.006 52.8926 128.301 53.1396 128.661 53.313C129.022 53.4871 129.435 53.5741 129.901 53.5741L129.984 53.5741ZM129.531 52.2846C129.23 52.2846 128.942 52.2095 128.668 52.0585C128.395 51.9074 128.173 51.6701 128.004 51.3456C127.835 51.0212 127.751 50.6031 127.751 50.0912V49.6655C127.751 49.1447 127.835 48.7243 128.004 48.4043C128.173 48.0844 128.392 47.8515 128.661 47.7049C128.931 47.5584 129.221 47.4854 129.531 47.4854H129.641C130.162 47.4854 130.596 47.6595 130.943 48.0063C131.289 48.3537 131.463 48.9029 131.463 49.6521V50.1179C131.463 50.8679 131.289 51.4163 130.943 51.7638C130.596 52.1113 130.162 52.2846 129.641 52.2846H129.531ZM134.916 47.6223H133.436V46.3745H134.916V44.3038H136.423V46.3745H138.711L138.533 47.6223H136.423V51.0919C136.423 51.4848 136.514 51.766 136.697 51.9349C136.879 52.1046 137.154 52.1887 137.519 52.1887H138.711V53.464H137.368C136.482 53.464 135.852 53.2653 135.477 52.8672C135.102 52.4699 134.916 51.9007 134.916 51.1604V47.6223ZM140.04 43.5501H141.601V45.1267H140.04V43.5501ZM140.067 46.3745H141.575V53.3955H140.067V46.3745ZM144.664 53.1693C145.162 53.4387 145.725 53.5741 146.356 53.5741H146.479C147.11 53.5741 147.675 53.4387 148.178 53.1693C148.68 52.9 149.075 52.5042 149.363 51.9833C149.651 51.4617 149.795 50.836 149.795 50.1045V49.6521C149.795 48.9207 149.651 48.2972 149.363 47.7801C149.075 47.2637 148.68 46.8686 148.178 46.594C147.675 46.3202 147.11 46.1826 146.479 46.1826H146.356C145.725 46.1826 145.162 46.3202 144.664 46.594C144.166 46.8686 143.771 47.2637 143.479 47.7801C143.186 48.2972 143.04 48.9252 143.04 49.6655V50.1045C143.04 50.836 143.186 51.4617 143.479 51.9833C143.771 52.5042 144.166 52.9 144.664 53.1693ZM144.548 49.6246C144.548 48.9029 144.721 48.3657 145.068 48.0137C145.415 47.6618 145.844 47.4854 146.356 47.4854H146.466C146.986 47.4854 147.42 47.6618 147.767 48.0137C148.114 48.3657 148.288 48.9029 148.288 49.6246V50.1321C148.288 50.8546 148.114 51.3933 147.767 51.7497C147.42 52.1068 146.986 52.2846 146.466 52.2846H146.356C145.844 52.2846 145.415 52.1068 145.068 51.7497C144.721 51.3933 144.548 50.8546 144.548 50.1321V49.6246ZM157.605 49.0621V53.3955H156.097V49.2682C156.097 48.6923 155.974 48.2511 155.727 47.9445C155.481 47.6387 155.106 47.4854 154.604 47.4854H154.508C154.215 47.4854 153.937 47.5584 153.672 47.7049C153.407 47.8515 153.192 48.0747 153.028 48.3768C152.864 48.6782 152.782 49.0621 152.782 49.5286V53.3956H151.274V46.3745H152.603V47.4304C152.823 47.0464 153.122 46.7429 153.501 46.5189C153.88 46.2949 154.33 46.1826 154.85 46.1826H154.988C155.782 46.1826 156.417 46.4296 156.892 46.9229C157.367 47.417 157.605 48.1298 157.605 49.0621ZM105.994 58.2997C105.364 57.7744 104.505 57.5117 103.418 57.5117H99.9108V67.1101H101.487V63.7366H103.418C104.505 63.7366 105.364 63.4784 105.994 62.962C106.625 62.4456 106.939 61.712 106.939 60.761V60.4731C106.939 59.5497 106.625 58.8257 105.994 58.2997ZM105.364 60.8027C105.364 61.3511 105.183 61.7536 104.823 62.0088C104.462 62.2648 103.98 62.3928 103.377 62.3928H101.487V58.8689H103.377C103.98 58.8689 104.462 58.9969 104.823 59.2528C105.183 59.5088 105.364 59.9069 105.364 60.4456V60.8027ZM111.57 60.0073H112.283V61.4054H111.584C111.255 61.4054 110.947 61.4791 110.659 61.6249C110.372 61.7715 110.138 62.0021 109.96 62.3176C109.782 62.6331 109.694 63.0513 109.694 63.5721V67.1101H108.186V60.0892H109.515V61.4195C109.688 60.9902 109.933 60.6472 110.248 60.3912C110.563 60.1353 111.004 60.0073 111.57 60.0073ZM117.996 60.3086C117.494 60.0348 116.928 59.8972 116.297 59.8972H116.174C115.544 59.8972 114.98 60.0348 114.482 60.3086C113.984 60.5832 113.589 60.9783 113.297 61.4947C113.005 62.0118 112.858 62.6398 112.858 63.3802V63.8191C112.858 64.5506 113.005 65.1763 113.297 65.6979C113.589 66.2188 113.984 66.6146 114.482 66.884C114.98 67.1533 115.544 67.2887 116.174 67.2887H116.297C116.928 67.2887 117.494 67.1533 117.996 66.884C118.499 66.6146 118.894 66.2188 119.181 65.6979C119.469 65.1763 119.613 64.5506 119.613 63.8191V63.3668C119.613 62.6353 119.469 62.0118 119.181 61.4947C118.894 60.9783 118.499 60.5832 117.996 60.3086ZM118.106 63.8467C118.106 64.5692 117.932 65.1079 117.585 65.4643C117.238 65.8214 116.804 65.9993 116.284 65.9993H116.174C115.663 65.9993 115.234 65.8214 114.886 65.4643C114.539 65.1079 114.366 64.5692 114.366 63.8467V63.3392C114.366 62.6175 114.539 62.0803 114.886 61.7283C115.234 61.3764 115.663 61.2 116.174 61.2H116.284C116.804 61.2 117.238 61.3764 117.585 61.7283C117.932 62.0803 118.106 62.6175 118.106 63.3392V63.8467ZM126.079 61.1316C125.622 60.3086 124.855 59.8972 123.777 59.8972H123.681C123.088 59.8972 122.567 60.0393 122.12 60.3228C121.672 60.6063 121.325 61.0036 121.078 61.5155C120.832 62.0274 120.708 62.622 120.708 63.2983V63.6681C120.708 64.3452 120.832 64.939 121.078 65.4509C121.325 65.9628 121.672 66.3609 122.12 66.6436C122.567 66.9271 123.088 67.0692 123.681 67.0692H123.777C124.709 67.0692 125.413 66.7352 125.888 66.0677V66.7947C125.888 68.1198 125.303 68.7828 124.134 68.7828H123.956C123.508 68.7828 123.15 68.7166 122.88 68.5841C122.611 68.4517 122.385 68.2344 122.202 67.9331L121.119 68.7419C121.375 69.1712 121.729 69.4964 122.181 69.7159C122.634 69.9346 123.206 70.0447 123.9 70.0447H124.188C125.221 70.0447 126.015 69.759 126.572 69.1876C127.129 68.6161 127.408 67.8051 127.408 66.7537V60.0892H126.079L126.079 61.1316ZM125.914 63.6547C125.914 64.2946 125.752 64.8087 125.428 65.1972C125.104 65.5856 124.672 65.7798 124.134 65.7798H124.011C123.453 65.7798 123.014 65.5908 122.695 65.2113C122.375 64.8318 122.216 64.3177 122.216 63.6681V63.2842C122.216 62.6353 122.375 62.1257 122.695 61.7551C123.014 61.3853 123.453 61.2 124.011 61.2H124.134C124.672 61.2 125.104 61.3898 125.428 61.7692C125.752 62.1487 125.914 62.6629 125.914 63.3117V63.6547ZM132.642 60.0073H133.355V61.4054H132.656C132.327 61.4054 132.019 61.4791 131.731 61.6249C131.443 61.7715 131.21 62.0021 131.032 62.3176C130.854 62.6331 130.765 63.0513 130.765 63.5721V67.1101H129.258V60.0892H130.587V61.4195C130.76 60.9902 131.005 60.6472 131.32 60.3912C131.635 60.1353 132.075 60.0073 132.642 60.0073ZM137.136 59.8972H136.93C136.245 59.8972 135.663 60.0371 135.183 60.3153C134.704 60.5944 134.359 60.9761 134.149 61.4605L135.314 62.0639C135.478 61.7261 135.69 61.4858 135.951 61.3444C136.211 61.2023 136.537 61.1316 136.93 61.1316H137.081C138.012 61.1316 138.478 61.6524 138.478 62.6949V62.7499L135.998 63.0788C135.304 63.1703 134.777 63.3987 134.416 63.7641C134.055 64.1302 133.875 64.6004 133.875 65.1763C133.875 65.8438 134.08 66.3631 134.491 66.7329C134.902 67.1034 135.482 67.2887 136.231 67.2887H136.327C136.848 67.2887 137.313 67.1764 137.725 66.9524C138.136 66.7284 138.446 66.4249 138.656 66.0409V67.1101H139.985V62.6673C139.985 61.7625 139.743 61.0743 139.259 60.6033C138.775 60.133 138.067 59.8972 137.136 59.8972ZM138.478 64.244C138.478 64.802 138.319 65.2478 137.999 65.5811C137.679 65.9152 137.249 66.0818 136.71 66.0818H136.574C136.181 66.0818 135.877 65.9926 135.663 65.814C135.448 65.6362 135.341 65.3914 135.341 65.0803C135.341 64.7701 135.434 64.5416 135.621 64.395C135.809 64.2492 136.14 64.1436 136.615 64.0796L138.478 63.8057V64.244ZM151.638 60.6375C152.081 61.1316 152.302 61.8444 152.302 62.7767V67.1101H150.795V62.9828C150.795 62.4069 150.688 61.9657 150.474 61.6591C150.259 61.3533 149.918 61.2 149.453 61.2H149.343C149.087 61.2 148.838 61.273 148.596 61.4195C148.354 61.5661 148.158 61.7893 148.007 62.0914C147.857 62.3928 147.781 62.7767 147.781 63.2432V67.1101H146.274V62.9828C146.274 62.4069 146.166 61.9657 145.952 61.6591C145.737 61.3533 145.397 61.2 144.931 61.2H144.821C144.566 61.2 144.316 61.273 144.075 61.4196C143.833 61.5661 143.636 61.7893 143.486 62.0914C143.335 62.3928 143.26 62.7767 143.26 63.2433V67.1101H141.752V60.0892H143.082V61.1316C143.291 60.7477 143.572 60.4456 143.924 60.2268C144.276 60.0073 144.689 59.8972 145.164 59.8972H145.287C146.347 59.8972 147.078 60.3317 147.48 61.2C147.699 60.7982 147.998 60.4798 148.377 60.2469C148.756 60.014 149.196 59.8972 149.699 59.8972H149.822C150.59 59.8972 151.195 60.1442 151.638 60.6375Z" fill="black"/>
<path d="M44.9695 67.2095L44.9705 76.9589H47.7214V67.2097L44.9695 67.2095ZM23.3281 67.1963V76.9589H26.1036V69.546L28.2538 69.5467C28.9661 69.5467 29.4733 69.7241 29.8165 70.0907C30.2517 70.5548 30.4293 71.3029 30.4293 72.6721V76.9589L33.118 76.9584L33.1185 71.5651C33.1185 67.7154 30.6667 67.1963 28.2682 67.1963H23.3281ZM49.399 67.2099V76.9589H53.8611C56.2385 76.9589 57.0144 76.5631 57.8536 75.6759C58.4468 75.0531 58.83 73.6858 58.83 72.1915C58.83 70.8212 58.5056 69.5987 57.9396 68.8374C56.9204 67.476 55.4521 67.2099 53.26 67.2099H49.399ZM52.1279 69.3327H53.3108C55.0268 69.3327 56.1366 70.1039 56.1366 72.1051C56.1366 74.1068 55.0268 74.878 53.3108 74.878H52.1279V69.3327ZM41.003 67.2099L38.7071 74.9365L36.507 67.2104L33.5373 67.2099L36.6793 76.9589H40.6443L43.8109 67.2099H41.003ZM60.1102 76.9589H62.8616V67.2104L60.1095 67.2099L60.1102 76.9589ZM67.8222 67.2134L63.9807 76.9555H66.6934L67.3011 75.2336H71.8473L72.4227 76.9555H75.3678L71.497 67.2126L67.8222 67.2134ZM69.608 68.9907L71.2745 73.5548H67.8889L69.608 68.9907Z" fill="black"/>
<path d="M41.3324 44.373V42.0308C41.5594 42.0147 41.789 42.0025 42.0229 41.9951C48.4232 41.7938 52.6222 47.4994 52.6222 47.4994C52.6222 47.4994 48.0871 53.8038 43.2245 53.8038C42.5241 53.8038 41.8974 53.6908 41.3324 53.501V46.3987C43.824 46.7 44.3249 47.8016 45.8233 50.3007L49.155 47.4892C49.155 47.4892 46.723 44.2968 42.6233 44.2968C42.1772 44.2968 41.7509 44.3283 41.3324 44.373ZM41.3324 36.636V40.1345C41.5621 40.1163 41.792 40.1017 42.0229 40.0933C50.9235 39.7932 56.7222 47.3991 56.7222 47.3991C56.7222 47.3991 50.0616 55.5053 43.1229 55.5053C42.487 55.5053 41.8917 55.4465 41.3324 55.3474V57.5099C41.8107 57.5708 42.3062 57.6066 42.8233 57.6066C49.2808 57.6066 53.9505 54.3064 58.4725 50.3999C59.2216 51.0008 62.2912 52.4623 62.9224 53.1029C58.6226 56.7052 48.603 59.6086 42.9227 59.6086C42.3753 59.6086 41.8488 59.5756 41.3324 59.5259V62.5651H65.8753V36.636H41.3324ZM41.3324 53.501V55.3474C35.3599 54.2817 33.7023 48.0681 33.7023 48.0681C33.7023 48.0681 36.5698 44.8882 41.3324 44.373L41.3324 46.3987C41.3286 46.3987 41.3262 46.3978 41.323 46.3978C38.824 46.0974 36.8712 48.4345 36.8712 48.4345C36.8712 48.4345 37.9652 52.3687 41.3324 53.501ZM30.7248 47.7988C30.7248 47.7988 34.2644 42.5713 41.3324 42.0308L41.3324 40.1345C33.5039 40.7633 26.7247 47.3991 26.7247 47.3991C26.7247 47.3991 30.5641 58.5088 41.3324 59.5259V57.5099C33.4304 56.5149 30.7248 47.7988 30.7248 47.7988Z" fill="#76B900"/>
</svg>
