<svg width="44" height="44" viewBox="0 0 44 44" fill="none" xmlns="http://www.w3.org/2000/svg">
<path fill-rule="evenodd" clip-rule="evenodd" d="M9.8845 35.5815H1.28839C0.577057 35.5815 0 36.1583 0 36.8699V42.7113C0 43.423 0.577057 44.0001 1.28839 44.0001H9.8845C10.5942 44.0001 11.1729 43.421 11.1729 42.7113V36.8699C11.1729 36.1603 10.5942 35.5815 9.8845 35.5815Z" fill="url(#paint0_linear_138_238)"/>
<path fill-rule="evenodd" clip-rule="evenodd" d="M23.6288 27.5923H15.0387C14.3271 27.5923 13.75 28.1693 13.75 28.881V42.7113C13.75 43.4229 14.3271 44 15.0387 44H23.6288C24.3388 44 24.9175 43.4209 24.9175 42.7113V28.881C24.9175 28.1714 24.3384 27.5923 23.6288 27.5923Z" fill="url(#paint1_linear_138_238)"/>
<path fill-rule="evenodd" clip-rule="evenodd" d="M42.6943 15.738H28.7835C28.0718 15.738 27.4951 16.3151 27.4951 17.0264V42.7114C27.4951 43.423 28.0718 44.0001 28.7835 44.0001H42.6943C43.4057 44.0001 43.9827 43.423 43.9827 42.7114V17.0264C43.9827 16.3148 43.4057 15.738 42.6943 15.738Z" fill="url(#paint2_linear_138_238)"/>
<path fill-rule="evenodd" clip-rule="evenodd" d="M1.9251 26.5412L40.2499 4.77454L39.0736 7.97504C38.8292 8.64072 39.1703 9.37824 39.836 9.62263C40.5013 9.86735 41.2392 9.52595 41.4836 8.8606L43.8747 2.35452C44.1678 1.55658 43.6135 0.706269 42.782 0.631073L35.8785 0.00534032C35.1725 -0.0587772 34.5485 0.461884 34.4844 1.16785C34.4206 1.87415 34.9412 2.4982 35.6472 2.56232L38.4885 2.8198L0.656852 24.3065C0.0395118 24.6567 -0.176675 25.4408 0.173454 26.0582C0.523918 26.6752 1.3081 26.8917 1.9251 26.5412Z" fill="url(#paint3_linear_138_238)"/>
<defs>
<linearGradient id="paint0_linear_138_238" x1="5.58644" y1="35.5815" x2="5.58644" y2="44.0001" gradientUnits="userSpaceOnUse">
<stop stop-color="#6C3DD1"/>
<stop offset="1" stop-color="#D281BC"/>
</linearGradient>
<linearGradient id="paint1_linear_138_238" x1="19.3338" y1="27.5923" x2="19.3338" y2="44" gradientUnits="userSpaceOnUse">
<stop stop-color="#6C3DD1"/>
<stop offset="1" stop-color="#D281BC"/>
</linearGradient>
<linearGradient id="paint2_linear_138_238" x1="35.7389" y1="15.738" x2="35.7389" y2="44.0001" gradientUnits="userSpaceOnUse">
<stop stop-color="#6C3DD1"/>
<stop offset="1" stop-color="#D281BC"/>
</linearGradient>
<linearGradient id="paint3_linear_138_238" x1="21.9799" y1="0" x2="21.9799" y2="26.709" gradientUnits="userSpaceOnUse">
<stop stop-color="#6C3DD1"/>
<stop offset="1" stop-color="#D281BC"/>
</linearGradient>
</defs>
</svg>
