<svg width="44" height="44" viewBox="0 0 44 44" fill="none" xmlns="http://www.w3.org/2000/svg">
<g id="Frame 1000005601">
<g id="&#240;&#159;&#166;&#134; icon &#34;Phone&#34;">
<path id="Vector" d="M18.5027 18.9373L21.922 15.8008C23.8375 14.0439 24.4945 11.3 23.5827 8.866L22.1215 4.96577C20.9895 1.94418 17.7023 0.324629 14.6167 1.2683C9.14603 2.94141 4.9415 8.025 6.23595 14.0643C7.08718 18.036 8.71468 23.0212 11.8017 28.3278C14.8939 33.6435 18.4253 37.5732 21.4526 40.3293C26.0251 44.4921 32.5604 43.451 36.765 39.5311C39.1041 37.3501 39.3428 33.726 37.3104 31.2569L34.6308 28.0021C32.979 25.9954 30.2742 25.1925 27.7948 25.9728L23.3689 27.3659C23.1987 27.1909 23.0015 26.9817 22.7865 26.7419C22.0593 25.9312 21.1497 24.7948 20.3846 23.4698C19.6196 22.1447 19.0903 20.7888 18.7518 19.7536C18.6516 19.4475 18.5691 19.1721 18.5027 18.9373Z" fill="url(#paint0_linear_193_50958)"/>
</g>
</g>
<defs>
<linearGradient id="paint0_linear_193_50958" x1="35.7183" y1="1.74296" x2="14.544" y2="43.3486" gradientUnits="userSpaceOnUse">
<stop stop-color="#6C3DD1"/>
<stop offset="1" stop-color="#D281BC"/>
</linearGradient>
</defs>
</svg>
