<svg width="88" height="88" viewBox="0 0 88 88" fill="none" xmlns="http://www.w3.org/2000/svg">
<path d="M71.832 14.4173C68.9676 8.84816 61.8109 4.93827 55.5787 5.34664C51.7766 5.57415 41.4642 7.33149 34.818 9.15734C28.1331 10.8363 18.2898 14.378 14.8675 16.0499C9.24022 18.7594 4.93184 25.6836 5.17681 31.9413C5.37547 35.7277 5.92677 40.8057 7.66901 47.4768C9.43301 54.1422 11.4501 58.8333 13.1393 62.2279C16.0037 67.797 23.1604 71.7069 29.3927 71.2985C31.4456 71.1761 35.3964 70.6071 39.6437 69.8219C40.3105 70.4391 41.0292 71.0935 41.8026 71.7843C44.8927 74.5504 47.1978 76.438 48.9062 77.7264C51.7499 79.8709 54.8549 79.0546 56.2762 75.7888C57.1301 73.8267 58.2074 71.0498 59.5388 67.1214C59.8721 66.1381 60.1751 65.2165 60.4535 64.3509C64.5378 62.9456 68.2576 61.498 70.1066 60.5946C75.7339 57.885 80.0422 50.9609 79.7973 44.7031C79.5986 40.9167 79.0477 35.8401 77.3054 29.169C75.5414 22.5036 73.5244 17.8124 71.8351 14.4179L71.832 14.4173ZM51.6458 57.5293C51.7167 58.3962 51.1633 59.3443 50.3737 59.7089C49.8936 59.9238 49.2303 60.1826 48.2963 60.4296C47.3633 60.6749 46.6585 60.7758 46.1331 60.8238C45.2662 60.8947 44.3181 60.3413 43.9535 59.5517C43.7386 59.0716 43.4798 58.4083 43.2328 57.4743C42.9875 56.5413 42.8866 55.8365 42.8386 55.3111C42.7677 54.4442 43.3211 53.4961 44.1107 53.1315C44.5908 52.9166 45.2541 52.6578 46.1881 52.4108C47.1211 52.1655 47.8259 52.0646 48.3513 52.0166C49.2182 51.9457 50.1663 52.4991 50.5309 53.2887C50.7458 53.7688 51.0046 54.4321 51.2516 55.3661C51.4969 56.2991 51.5978 57.0039 51.6458 57.5293ZM54.0692 33.0765C53.4097 34.8377 52.1926 36.6073 50.2386 38.6434C47.7691 41.2353 47.4935 42.106 47.8779 43.5681L48.0299 44.1461C48.5748 46.2188 47.3317 48.3486 45.259 48.8935C43.1863 49.4384 41.0565 48.1954 40.5116 46.1227L40.1594 44.783C39.706 43.0585 39.7524 41.4818 40.3012 39.9634C40.8333 38.4916 41.8302 37.046 43.4424 35.408C46.419 32.4109 46.7579 31.0786 46.3521 29.535C45.8422 27.5955 43.8601 26.776 41.3046 27.4479C38.5029 28.1845 37.0138 29.9369 36.8786 32.6581C36.7892 34.4526 35.5475 35.9685 33.7904 36.4304C33.6924 36.4562 33.5934 36.4779 33.4937 36.4968C32.2298 36.7331 30.9495 36.382 29.9818 35.5328C29.0237 34.6927 28.5128 33.4849 28.5797 32.2183C28.7342 29.3219 29.7929 26.6677 31.6404 24.5418C33.5115 22.3894 36.1751 20.8123 39.3399 19.9803C42.5047 19.1483 45.9533 19.3627 48.7061 20.6746C51.5389 22.0251 53.5261 24.3904 54.3009 27.3376C54.8329 29.3613 54.7581 31.2392 54.0692 33.0765Z" fill="#343434"/>
</svg>
