<svg width="38" height="44" viewBox="0 0 38 44" fill="none" xmlns="http://www.w3.org/2000/svg">
<path d="M18.7332 13.6184C14.1104 13.6184 10.3496 17.3792 10.3496 22.0017C10.3496 26.6245 14.1104 30.3853 18.7332 30.3853C23.3557 30.3853 27.1165 26.6245 27.1165 22.0017C27.1165 17.3792 23.3557 13.6184 18.7332 13.6184ZM23.7105 20.4229L17.7046 26.4288C17.4525 26.6809 17.1219 26.8071 16.7916 26.8071C16.4612 26.8071 16.1309 26.6812 15.8788 26.4288L13.5837 24.1336C13.0795 23.6298 13.0795 22.8124 13.5837 22.3082C14.0875 21.8039 14.905 21.8039 15.4092 22.3082L16.7916 23.6905L21.885 18.5974C22.3889 18.0932 23.2063 18.0932 23.7105 18.5974C24.2147 19.1013 24.2147 19.9187 23.7105 20.4229Z" fill="url(#paint0_linear_138_268)"/>
<path d="M37.4247 11.9383L37.4233 11.9041C37.4042 11.4814 37.3915 11.0343 37.3837 10.5368C37.3478 8.11076 35.4193 6.10398 32.9929 5.96836C27.934 5.68605 24.0205 4.03645 20.6766 0.777213L20.6481 0.750021C19.5574 -0.250007 17.9122 -0.250007 16.8212 0.750021L16.7927 0.777213C13.4488 4.03645 9.53534 5.68605 4.47645 5.9687C2.0504 6.10398 0.121505 8.11076 0.085586 10.5371C0.0782007 11.0313 0.0651087 11.4784 0.0459742 11.9041L0.0439601 11.9836C-0.0543978 17.1422 -0.17659 23.5624 1.97117 29.3896C3.15214 32.5942 4.94071 35.3797 7.28687 37.6695C9.95898 40.2772 13.4589 42.3474 17.6893 43.8224C17.8269 43.8704 17.97 43.9094 18.1156 43.9386C18.3211 43.9795 18.5279 44 18.7347 44C18.9414 44 19.1486 43.9795 19.3537 43.9386C19.4994 43.9094 19.6434 43.8701 19.7817 43.8217C24.007 42.344 27.5033 40.2728 30.1731 37.6655C32.5182 35.375 34.3068 32.5888 35.4887 29.3836C37.6446 23.5389 37.5227 17.1066 37.4247 11.9383ZM18.734 32.9661C12.6875 32.9661 7.76859 28.0472 7.76859 22.0007C7.76859 15.9542 12.6875 11.0353 18.734 11.0353C24.7801 11.0353 29.6994 15.9542 29.6994 22.0007C29.6994 28.0472 24.7801 32.9661 18.734 32.9661Z" fill="url(#paint1_linear_138_268)"/>
<defs>
<linearGradient id="paint0_linear_138_268" x1="18.733" y1="13.6184" x2="18.733" y2="30.3853" gradientUnits="userSpaceOnUse">
<stop stop-color="#6C3DD1"/>
<stop offset="1" stop-color="#D281BC"/>
</linearGradient>
<linearGradient id="paint1_linear_138_268" x1="18.7342" y1="0" x2="18.7342" y2="44" gradientUnits="userSpaceOnUse">
<stop stop-color="#6C3DD1"/>
<stop offset="1" stop-color="#D281BC"/>
</linearGradient>
</defs>
</svg>
