<svg width="23" height="18" viewBox="0 0 23 18" fill="none" xmlns="http://www.w3.org/2000/svg">
<path d="M22.5 0.038376C21.5424 0.713853 20.4821 1.23049 19.36 1.56838C18.7577 0.875887 17.9573 0.385068 17.067 0.162302C16.1767 -0.0604636 15.2395 -0.00442835 14.3821 0.322829C13.5247 0.650087 12.7884 1.23278 12.273 1.99209C11.7575 2.75141 11.4877 3.65071 11.5 4.56838V5.56838C9.74263 5.61394 8.00127 5.22419 6.43101 4.43382C4.86074 3.64345 3.51032 2.47701 2.5 1.03838C2.5 1.03838 -1.5 10.0384 7.5 14.0384C5.44053 15.4363 2.98716 16.1373 0.5 16.0384C9.5 21.0384 20.5 16.0384 20.5 4.53838C20.4991 4.25983 20.4723 3.98197 20.42 3.70838C21.4406 2.70187 22.1608 1.43109 22.5 0.038376Z" fill="#D9D9D9"/>
</svg>
